<?xml version="1.0" encoding="utf-8"?>
<svg xmlns="http://www.w3.org/2000/svg" x="0px" y="0px" width="250px" height="250px">
<path fill="#092D74" d="M213,37c-22.5-22.5-53.7-36.5-88-36.5C90.6,0.5,59.5,14.4,37,37C14.4,59.5,0.5,90.6,0.5,125
	s13.9,65.5,36.5,88c22.5,22.5,53.7,36.5,88,36.5c34.4,0,65.5-13.9,88-36.5c22.5-22.5,36.5-53.7,36.5-88S235.6,59.5,213,37"/>
<path fill="#FFFFFF" d="M125,32c-51.3,0-93,41.6-93,93c0,51.4,41.6,93,93,93s93-41.6,93-93C218,73.7,176.3,32,125,32"/>
<path fill="#1A9FDA" d="M189.3,189.3C172.9,205.8,150.1,216,125,216s-47.9-10.2-64.3-26.6C44.2,172.8,34,150.1,34,125
	s10.2-47.9,26.6-64.3C77.1,44.2,99.9,34,125,34s47.9,10.2,64.3,26.6C205.8,77.1,216,99.9,216,125S205.8,172.8,189.3,189.3"/>
<path fill="#092D74" d="M71.6,177.8c-0.1,0-0.1,0-0.2,0c0.3,0,0.6,0,0.8,0C72.1,177.8,71.8,177.8,71.6,177.8 M78.3,99.9
	C78.2,99.9,78.2,99.9,78.3,99.9C78.2,99.9,78.2,99.9,78.3,99.9z M207.4,137.6c-2.4-0.4-4.8-0.9-7.1-1.3c-3.4-0.6-6.7-1.2-10.1-1.8
	c0-6.3,0-12.5,0-18.8c0-0.5,0-1,0-1.5c0,0.4,0,0.8,0,1.2c2.8-0.5,5.6-1,8.3-1.5c2-0.4,3.9-0.7,5.9-1.1c0.9-0.2,1.8-0.2,2.7-0.5
	c0,0,0,0,0,0c0,0,0.1,0,0.1,0c0,0,0.1,0,0.1,0c0.6-0.1,0.3-0.9-0.2-0.8c-2.4,0.3-4.8,0.6-7.2,1c-3.3,0.4-6.5,0.9-9.7,1.3
	c0-2.1,0.1-4.2,0-6.3c0-0.2,0-0.4-0.1-0.5c0,0,0,0,0-0.1c-0.3-1.9-1.1-2.9-2.7-3.8c-0.1-0.1-4.9-2.8-5-2.8c-0.9-0.5-1.2-0.7-2.4-0.8
	c-1.1-0.1-2.1,0.3-3.1,0.4c-0.2,0-0.4,0-0.6,0c5.1-2.7,10.1-5.5,15.2-8.2c1.8-0.9,3.5-1.9,5.3-2.9c0.8-0.4,1.6-0.8,2.4-1.3
	c0,0,0.1,0,0.1,0c0,0,0,0,0.1,0c0,0,0.1,0,0.1-0.1c0.5-0.3,0.1-1-0.4-0.8c-2.2,1.1-4.4,2.1-6.5,3.2c-5.2,2.5-10.5,5-15.7,7.6
	c-1.7,0.8-3.3,1.6-5,2.4c-0.3,0-0.6,0-0.9-0.1c-5.1-0.4-10.2-1.1-15.1-2.2c-0.4-0.1-0.8-0.2-1.2-0.2c3.6-3.8,7.2-7.6,10.9-11.3
	c4.2-4.4,8.4-8.8,12.6-13.2c1.4-1.4,2.8-2.9,4.2-4.3c0.6-0.6,1.2-1.2,1.8-1.9c0,0,0.1-0.1,0.1-0.1c0,0,0,0,0-0.1
	c0,0,0.1-0.1,0.1-0.1c0.4-0.4-0.2-1-0.6-0.6c-1.8,1.7-3.5,3.3-5.3,5c-4.2,4-8.4,8-12.6,12.1c-4.9,4.7-9.7,9.3-14.6,14
	c-3.3-0.5-6.5-0.8-9.7-0.7h0c0.3-0.5,0.5-1.1,0.8-1.6c3.1-6.3,6.1-12.7,9.2-19c2.6-5.5,5.3-11,7.9-16.4c1.2-2.6,2.6-5.1,3.8-7.8
	c0-0.1,0.1-0.1,0.1-0.2c0,0,0,0,0-0.1c0,0,0-0.1,0.1-0.1c0.2-0.5-0.5-0.9-0.8-0.4c-1.1,2.1-2.3,4.3-3.4,6.4
	c-2.8,5.1-5.5,10.2-8.3,15.4c-3.3,6.2-6.7,12.4-10,18.6c-1,1.8-2,3.7-3,5.5c-0.1,0-0.1,0-0.2,0c0.2-0.5,0.4-1,0.4-1.7
	c0.1-1.3,0.3-3.5-0.4-4.8c0.3-0.6,0.4-1.3,0.3-2c-0.1-0.3-0.1-0.6-0.3-0.9c0.1-0.1,0.3-0.2,0.4-0.2c1.1-0.8,2.2-1.7,3.1-2.7
	c1.6-1.8,2.7-4,3.1-6.3c0.7-4-0.3-8.5-2.7-11.9c-0.4-0.6-1-0.9-1.5-1c-0.3-3-1.7-5.7-3.5-8.2c0.2-1.7,0.4-3.3,0.7-5
	c0.4-2.8,0.9-5.6,1.2-8.5c0-0.1,0-0.2,0-0.3c0,0,0,0,0-0.1c0,0,0-0.1,0-0.1c0.1-0.5-0.7-0.8-0.8-0.2c-0.4,2.4-0.9,4.8-1.3,7.1
	c-0.3,1.8-0.7,3.6-1,5.5c0,0,0,0,0,0c-0.5-0.5-1-1.1-1.5-1.6c-0.8-0.7-1.8-0.7-2.6-0.3c-0.3-3.4-1.6-6.8-4.1-9.2
	c-1.2-1.2-4-0.4-3.7,1.5c0.3,1.9-0.9,4.1-1.9,5.7c-1.7,2.7-3.9,5-6.2,7.3c-0.4-2.4-0.9-4.8-1.3-7.2c-0.4-2-0.7-3.9-1.1-5.9
	c-0.2-0.9-0.2-1.8-0.5-2.7c0,0,0,0,0,0c0,0,0-0.1,0-0.1c0,0,0-0.1,0-0.1c-0.1-0.6-0.9-0.3-0.8,0.2c0.3,2.4,0.7,4.8,1,7.2
	c0.5,3.3,0.9,6.7,1.4,10c-0.8,0.8-1.5,1.6-2.3,2.3c-3.2,3.4-6,7.5-6.2,12.3c-0.2,4.4,2,8.4,5.1,11.4c0.5,0.5,1.1,0.9,1.6,1.3
	c-0.1,0.5-0.2,1-0.1,1.6c0.1,0.3,0.2,0.6,0.3,0.9c-0.1,0.3-0.2,0.6-0.3,0.9c-0.3,1.5-0.4,3.6,0.1,5.1c0,0.2,0.1,0.3,0.2,0.4
	c0,0-0.1,0-0.2,0c-0.6-1.1-1.2-2.2-1.8-3.3c-3.3-6.2-6.7-12.4-10-18.6c-2.9-5.4-5.8-10.7-8.6-16.1c-1-1.8-1.9-3.5-2.9-5.3
	c-0.4-0.8-0.8-1.6-1.3-2.4c0,0,0-0.1,0-0.1c0,0,0,0,0-0.1c0,0,0-0.1-0.1-0.1c-0.3-0.5-1-0.1-0.8,0.4c1,2.2,2.1,4.4,3.2,6.5
	c2.5,5.2,5,10.5,7.6,15.7c3.1,6.3,6.1,12.7,9.2,19c0.6,1.3,1.2,2.6,1.9,3.9c-3.2-0.1-6.5,0.2-9.7,0.7c-4.3-4.1-8.5-8.1-12.8-12.2
	c-4.4-4.2-8.8-8.4-13.2-12.6c-1.4-1.4-2.9-2.8-4.3-4.2c-0.6-0.6-1.2-1.2-1.9-1.8c0,0-0.1-0.1-0.1-0.1c0,0,0,0-0.1,0
	c0,0-0.1-0.1-0.1-0.1c-0.4-0.4-1,0.2-0.6,0.6c1.7,1.7,3.3,3.5,5,5.2c4,4.2,8,8.4,12.1,12.6c4.2,4.4,8.4,8.8,12.6,13.2
	c-0.4,0.1-0.8,0.2-1.2,0.2c-4.9,1.1-9.9,1.8-14.8,2.2c-0.4,0-0.8,0.1-1.2,0.1c-0.9-0.4-1.8-0.9-2.7-1.3c-5.5-2.6-11-5.3-16.4-7.9
	c-2.6-1.2-5.1-2.6-7.8-3.8c-0.1,0-0.1-0.1-0.2-0.1c0,0,0,0-0.1,0c0,0-0.1,0-0.1-0.1c-0.5-0.2-0.9,0.5-0.4,0.8
	c2.1,1.1,4.3,2.3,6.4,3.4c5.1,2.8,10.2,5.5,15.4,8.3c0.5,0.2,0.9,0.5,1.4,0.7c0,0,0,0,0,0c0.1,0,0.2,0,0.2,0c-0.1,0-0.2,0-0.2,0
	c0.7,0.1,1.4,0.1,2.1,0.1c-0.8,0-1.7,0-2.5-0.1c-1-0.1-2-0.4-3.1-0.4c-1.4,0-1.7,0.3-2.6,0.8c-0.1,0.1-4.8,2.8-5,2.8
	c-3.3,1.9-2.8,5.3-2.8,8.6c0,0.7,0,1.4,0,2.1c-2.7-0.4-5.4-0.7-8-1.1c-2.8-0.4-5.6-0.9-8.5-1.2c-0.1,0-0.2,0-0.3,0c0,0,0,0-0.1,0
	c0,0-0.1,0-0.1,0c-0.5-0.1-0.8,0.7-0.2,0.8c2.4,0.4,4.8,0.9,7.1,1.3c3.3,0.6,6.7,1.2,10,1.8c0-0.1,0-0.2,0-0.3c0,3.8,0,7.7,0,11.5
	c0,2.9,0,5.8,0,8.7c0-0.1,0-0.2,0-0.4c0-0.2,0-0.4,0-0.5c-2.8,0.5-5.6,1-8.4,1.5c-2,0.4-3.9,0.7-5.9,1.1c-0.9,0.2-1.8,0.2-2.7,0.5
	c0,0,0,0,0,0c0,0-0.1,0-0.1,0c0,0-0.1,0-0.1,0c-0.6,0.1-0.3,0.9,0.2,0.8c2.4-0.3,4.8-0.6,7.2-1c3.3-0.4,6.5-0.9,9.8-1.3
	c0,7.1,0,14.2,0.1,21.3c-0.5,0.3-0.9,0.5-1.4,0.8c-1.8,0.9-3.5,1.9-5.3,2.9c-0.8,0.4-1.6,0.8-2.4,1.3c0,0-0.1,0-0.1,0c0,0,0,0-0.1,0
	c0,0-0.1,0-0.1,0.1c-0.5,0.3-0.1,1,0.4,0.8c2.2-1.1,4.4-2.1,6.5-3.2c0.8-0.4,1.6-0.8,2.4-1.1c0,1.9,0,3.8,0,5.7c0,3.7,0,7.3,0,11
	c0,1.2,1,2.2,2.2,2.2c2.5,0,5.7,0,9.3,0c-1.2,1.2-2.4,2.5-3.6,3.7c-0.6,0.6-1.2,1.2-1.8,1.9c0,0-0.1,0.1-0.1,0.1c0,0,0,0,0,0.1
	c0,0-0.1,0.1-0.1,0.1c-0.4,0.4,0.2,1,0.6,0.6c1.7-1.7,3.5-3.3,5.2-5c0.5-0.5,1-1,1.5-1.5c7.4,0,16.2,0,23.9,0
	c-2.1,4.4-4.2,8.8-6.3,13.2c-1.2,2.6-2.6,5.1-3.8,7.8c0,0.1-0.1,0.1-0.1,0.2c0,0,0,0,0,0.1c0,0,0,0.1-0.1,0.1
	c-0.2,0.5,0.5,0.9,0.8,0.4c1.1-2.1,2.3-4.3,3.4-6.4c2.7-5.1,5.5-10.2,8.2-15.3c0,0-0.1,0-0.1,0c8.1,0,14.6,0,16.5,0c0,0,0,0,0,0
	c-0.1,0.8-0.2,1.6-0.3,2.4c-0.8,6-1.6,12.1-2.5,18.1c-0.4,2.8-0.9,5.6-1.2,8.5c0,0.1,0,0.2,0,0.3c0,0,0,0,0,0.1c0,0,0,0.1,0,0.1
	c-0.1,0.5,0.7,0.8,0.8,0.2c0.4-2.4,0.9-4.8,1.3-7.1c1-5.7,2.1-11.4,3.1-17.2c0.2-1.2,0.4-2.3,0.6-3.5c0.4,0.4,0.9,0.7,1.4,0.9
	c0.7,7.3,2.4,23.9,2.6,25c0,0.1,0.1,0.3,0.1,0.5c0,0.2,0.1,0.4,0.2,0.6l0,0c0,0,0,0,0,0c0.1,0.2,0.3,0.5,0.5,0.6
	c1.3,1.3,4.3,1.3,5.6,0h0c0.2-0.2,0.3-0.4,0.4-0.6c0,0,0,0,0,0c0,0,0,0,0,0c0.1-0.3,0.2-0.5,0.2-0.8c0-0.1,0-0.2,0.1-0.3
	c0.8-7.4,2.5-24.1,2.6-25c0.5-0.3,1.1-0.6,1.5-1c0,0-0.1,0.1-0.1,0.1c0.1,0.4,0.1,0.7,0.2,1.1c1.1,6,2.2,12,3.3,18
	c0.4,2,0.7,3.9,1.1,5.9c0.2,0.9,0.2,1.8,0.5,2.7c0,0,0,0,0,0c0,0,0,0.1,0,0.1c0,0,0,0.1,0,0.1c0.1,0.6,0.9,0.3,0.8-0.2
	c-0.3-2.4-0.7-4.8-1-7.2c-0.8-5.8-1.6-11.5-2.3-17.3c-0.2-1.7-0.4-3.3-0.7-5c1.9,0,8.4,0,16.3,0c2.5,4.6,4.9,9.2,7.4,13.8
	c0.9,1.8,1.9,3.5,2.8,5.3c0.4,0.8,0.8,1.6,1.3,2.4c0,0,0,0.1,0,0.1c0,0,0,0,0,0.1c0,0,0,0.1,0.1,0.1c0.3,0.5,1,0.1,0.8-0.4
	c-1.1-2.2-2.1-4.4-3.2-6.5c-2.4-4.9-4.7-9.8-7.1-14.7c-0.2,0-0.3,0-0.5,0c-0.3,0-0.5,0-0.8,0c8.3,0,17.9,0,25.2,0
	c0.1,0.1,0.2,0.2,0.3,0.3c1.4,1.4,2.9,2.8,4.3,4.2c0.6,0.6,1.2,1.2,1.9,1.8c0,0,0.1,0.1,0.1,0.1c0,0,0,0,0.1,0c0,0,0.1,0.1,0.1,0.1
	c0.4,0.4,1-0.2,0.6-0.6c-1.7-1.7-3.3-3.5-5-5.2c-0.2-0.2-0.4-0.4-0.6-0.6c-0.1,0-0.2,0-0.3,0c5.2,0,9,0,9.5,0c1.2,0,2.2-1,2.2-2.2
	c0-5.5,0-11.1,0-16.6c0.3,0.1,0.5,0.3,0.8,0.4c2.6,1.2,5.1,2.6,7.8,3.8c0.1,0,0.1,0.1,0.2,0.1c0,0,0,0,0.1,0c0,0,0.1,0,0.1,0.1
	c0.5,0.2,0.9-0.5,0.4-0.8c-2.1-1.1-4.3-2.3-6.4-3.4c-1-0.5-2-1.1-2.9-1.6c0,0.3,0,0.5,0,0.8c0,0.2,0,0.4,0,0.5
	c0-7.6,0-15.1,0.1-22.7c0,0,0,0.1,0,0.1c2.7,0.4,5.4,0.7,8.1,1.1c2.8,0.4,5.6,0.9,8.5,1.2c0.1,0,0.2,0,0.3,0c0,0,0,0,0.1,0
	c0,0,0.1,0,0.1,0C207.7,138.5,208,137.7,207.4,137.6"/>
<path fill="#FFFFFF" d="M33.9,162.9c0.3,0.7,0.5,1.3,0.6,1.5l0.1,0.1l-0.1,0c-0.9,0.2-3.6,1.2-7,2.5l-4.2,1.6
	c-3.9,1.5-6.2,2.5-6.8,2.9l-0.1,0.1l0-0.2c-0.1-0.3-0.3-1-0.5-1.5l-2.1-5.5c-0.2-0.5-0.6-1.5-0.9-1.9l-0.1-0.2l0.2,0
	c0.4-0.1,1.2-0.3,2-0.6l0.2-0.1l0,0.2l0,0.2c0,0.3,0.1,0.9,0.4,1.9v0c0.2,0.8,0.7,2.2,1.5,4.3l0,0l6.1-2.4l0-0.1
	c-0.2-0.5-1.2-3.2-1.5-3.9c-0.5-1.3-0.9-1.8-1-2l-0.1-0.2l0.2,0c0.6-0.1,1.6-0.4,2-0.6l0.2-0.1l0,0.2l0,0.2c0,0.3,0.1,0.8,0.3,1.6
	c0.3,0.8,1.3,3.6,1.5,4.2l0,0l1.7-0.7c2.1-0.8,3.4-1.3,4.2-1.6c0.8-0.3,1.1-0.5,1.2-0.6l0,0l0-0.1c0-0.1,0-0.3-0.1-0.5
	c-0.2-0.6-0.4-1.4-0.8-2.4c-0.9-2.3-1.5-3.3-2.1-3.9l-0.2-0.2l0.3,0c0.6,0,1.5-0.2,2-0.3l0.1,0l0,0.1c0.1,0.1,0.2,0.3,0.6,1.3
	C32.9,160,33.5,162,33.9,162.9 M21,146.8c3.6-0.6,6.5-1,7.4-1.1l0.2,0l-0.1-0.1c-0.1-0.3-0.2-0.7-0.3-1.2c-0.2-1.2-0.4-3-1-6.8
	c-0.2-1.1-0.3-1.4-0.3-1.5l0-0.1l-0.1,0c-0.4,0-1.6-0.1-2-0.2l-0.3-0.1l0.2,0.3c0.4,0.5,0.8,1.5,1.3,4.3c0.2,1.1,0.3,2,0.4,2.5
	l0,0.2c0,0.2,0,0.3-0.1,0.4c0,0-0.3,0.1-1.1,0.3c-0.8,0.2-2.2,0.4-4.7,0.9l-4.4,0.8c-3.6,0.6-6.4,1-7.3,1.1l-0.2,0l0.1,0.2
	c0.1,0.2,0.2,0.9,0.3,1.5c0.1,0.3,0.1,0.8,0.1,1.1l0,0l0,0.2l0.2-0.1c0.7-0.3,3.6-0.9,7.3-1.5L21,146.8z M10.5,125.7l0,0.1
	c6.1,1.1,13.9,2.5,15.3,2.9l0.2,0l0-0.2c0-0.1,0-0.2,0-0.4c0-0.3,0-0.6,0-0.9c0-0.2,0.1-0.7,0.1-1l0-0.1l-0.1,0
	c-1.5-0.1-9.5-1.3-14.1-1.9c4.5-1.7,9-3.6,14.5-5.7c0.1,0,0.2-0.1,0.3-0.1c0.1,0,0.1-0.1,0.1-0.2c0-0.1-0.1-0.2-0.1-0.2
	c-0.1-0.1-0.2-0.1-0.3-0.2c-4.3-2.4-9.2-5.4-13.5-7.9c4.9,0.1,12.7,0,14.2,0.2l0.1,0l0-0.1c0-0.1,0-0.2,0-0.4c0-0.3,0-0.7,0-1.2
	c0-0.5,0.1-0.9,0.1-1.1l0.1-0.2l-0.2,0c-1.5,0.3-9.1,0.4-15.2,0.5c-1.4,0-2.8,0.1-4,0.1h0h0c-0.3,0-0.5,0-0.6,0.1l-0.2,0.1l-0.1,0.1
	l0,0v0v0v0c0,0.1,0.1,0.2,0.1,0.3c0.1,0.1,0.2,0.2,0.4,0.3l0,0l0,0c1.5,0.9,3,1.8,5.3,3.3h0l9.4,5.6l-11.4,4.8h0
	c-1.3,0.6-3.9,1.7-4.5,2l0,0l0,0c-0.1,0.1-0.2,0.1-0.3,0.2c-0.1,0-0.2,0.1-0.2,0.2h0v0l0,0l0.1,0.2c0.1,0,0.2,0.1,0.3,0.1l0,0h0
	c1.2,0.2,2.6,0.4,4,0.7L10.5,125.7z M28,81l-4.3-1.6c-3.4-1.3-6.2-2.3-6.9-2.8l-0.1-0.1l0,0.2c-0.1,0.4-0.3,0.9-0.4,1.4
	c-0.2,0.4-0.3,0.8-0.4,1l-0.1,0.1l0.2,0c0.9,0.2,3.4,1,6.8,2.3l0.4,0.2l0,0l-3.8,10.2l0,0L18.9,92c-3.5-1.3-5.9-2.3-6.7-2.7L12,89.2
	l0,0.2c-0.1,0.3-0.2,0.9-0.4,1.4c-0.1,0.3-0.3,0.8-0.4,1L11,92l0.2,0c0.9,0.2,3.6,1,7.1,2.3l4.3,1.6c3.1,1.2,6,2.3,6.9,2.8l0.1,0.1
	l0-0.2c0.1-0.3,0.3-1,0.5-1.5c0.1-0.4,0.3-0.7,0.4-1l0.1-0.1l-0.1,0c-1-0.3-4-1.2-7.1-2.3l-2.2-0.8l0,0l3.8-10.3l0,0l2.2,0.8
	c3.1,1.2,6.1,2.3,6.9,2.8l0.1,0.1l0-0.2c0-0.2,0.3-1,0.4-1.4c0.1-0.3,0.3-0.8,0.4-1l0.1-0.1l-0.2,0C34,83.1,31.1,82.1,28,81
	 M40.6,57.5l-2.5-1.7c-3-2.1-5.4-3.9-6-4.4L32,51.3L32,51.4c0,0.1-0.3,0.6-0.6,1c-0.1,0.2-0.4,0.6-0.6,0.8l-0.1,0.1l0.2,0.1
	c0.8,0.4,3.3,1.9,6.3,4l2.5,1.7c2.4,1.7,3.8,3,4.2,4.8l0,0c0.1,0.3,0.1,0.5,0.1,0.8c0,1.1-0.5,2.2-1,3c-0.7,1-1.7,2.2-3.3,2.5h0
	c-0.4,0.1-0.7,0.1-1.1,0.1c-1.1,0-2.5-0.4-4.6-1.9l-3-2c-3-2.1-5.4-3.9-6-4.4L24.7,62l-0.1,0.1c-0.1,0.3-0.4,0.8-0.8,1.4l0.1,0.1
	l-0.1-0.1c-0.2,0.3-0.5,0.7-0.6,0.8L23,64.5l0.2,0.1c0.3,0.1,1.1,0.6,2.2,1.3c1.1,0.7,2.5,1.7,4.1,2.7l3.3,2.3
	c2.3,1.6,4,2.1,5.4,2.1c0.5,0,0.9-0.1,1.4-0.2c1.9-0.4,3.5-2,4.5-3.5c0.9-1.3,1.7-2.8,1.7-4.6c0-0.2,0-0.5,0-0.7
	C45.4,61.1,43.1,59.2,40.6,57.5 M49.4,47L49.4,47L49.4,47L49.4,47c0.5-0.2,1.5-1,2.5-1.9c0.5-0.5,0.8-0.8,0.9-1.2
	c0.1-0.3,0.1-0.6,0.1-0.9c0-1-0.3-2.2-1.3-3.2c-0.9-1-2-1.5-3.1-1.5c-1.1,0-2.2,0.5-3.2,1.4c-0.6,0.5-1.1,1-1.3,1.3l0,0l0,0L49.4,47
	z M64.4,45.2c0.6,0,1.1-0.1,1.4-0.2l0.3-0.1L66,45.3c-0.2,0.4-0.7,0.9-1.2,1.3c-0.7,0.7-1.4,0.9-2.4,0.9c-0.2,0-0.5,0-0.7,0
	c0,0,0,0,0,0c-2-0.1-6.2-1.1-8.1-1.5l-0.1,0L53.2,46c-0.4,0.4-1.7,1.6-2.6,2.3l0,0.1l0.5,0.6c2.2,2.4,4.1,4.4,5,5.1l0.1,0.1
	l-0.1,0.1c-0.2,0.1-0.5,0.4-0.9,0.7c-0.3,0.3-0.9,0.9-1.1,1.1l-0.1,0.1L54.1,56c-0.5-0.7-2.6-3.2-4.8-5.7L46.2,47
	c-1.2-1.4-2.4-2.6-3.3-3.5c-0.9-0.9-1.6-1.6-2-1.8l-0.2-0.1l0.1-0.1c0.4-0.3,0.6-0.5,0.9-0.8c0.4-0.3,1.8-1.8,2.4-2.4
	c1.3-1.2,2.7-2.1,4-2.4c0.3,0,0.6-0.1,0.9-0.1c1.3,0,2.7,0.5,3.8,1.7c1.1,1.2,1.7,2.6,1.7,4.3c0,0.6-0.1,1.2-0.2,1.9
	c2.7,0.5,5.8,1.1,8.3,1.3h0C63.4,45.2,64,45.2,64.4,45.2 M70.4,30.1L69,30c-1.4-0.1-2.3-0.3-2.9-0.6c-0.6-0.3-1-0.8-1.3-1.4
	c-0.3-0.5-0.4-1-0.4-1.4c0-1,0.6-2,1.7-2.6c1-0.6,2-0.8,2.7-0.8c0.5,0,0.9,0.1,1.2,0.2l0.3,0.1L70,23.2c-0.2-0.4-0.5-0.9-0.7-1.3
	c-0.2-0.4-0.4-0.8-0.4-0.9l0-0.1l-0.1,0.1c-0.2,0.1-0.6,0.3-1.2,0.5c-0.6,0.2-1.4,0.5-2.3,1.1c-2.1,1.2-3,3-3,4.7
	c0,0.9,0.2,1.7,0.7,2.5c0.9,1.6,2.5,2.7,5.7,2.9l1.5,0.1c2.7,0.2,3.6,0.7,4.4,2.1c0.4,0.6,0.6,1.3,0.6,1.9c0,1-0.5,2-1.8,2.8
	c-1,0.6-2,0.8-2.9,0.8c-0.7,0-1.3-0.1-1.8-0.3l-0.4-0.2l0.2,0.3c0.4,0.6,1,1.9,1.1,2.3l0,0.1l0.1,0l0.2,0c1.1,0,2.7-0.5,4-1.3
	c1.1-0.7,2.2-1.7,2.8-3c0.3-0.7,0.5-1.5,0.5-2.2c0-1.2-0.4-2.2-0.8-2.9C75.5,31.3,74.1,30.2,70.4,30.1 M93.2,10.7l0-0.2L93,10.7
	c-0.2,0.1-0.7,0.4-1.4,0.6c-0.7,0.3-1.4,0.6-2.2,0.8l-7.9,2.8c-2.1,0.7-3,1-3.6,1l-0.1,0l0,0.1c0.1,0.5,0.3,1.7,0.3,2.1l0,0.2
	l0.2-0.1c0.5-0.4,1.5-0.9,3.1-1.5c1.5-0.6,2.2-0.8,3.2-1.2l3.5,9.8c1.1,3.2,2.1,6.3,2.3,7.1l0,0.2l0.1-0.1c0.4-0.2,0.9-0.4,1.4-0.6
	c0.4-0.1,0.8-0.3,1-0.3l0.2,0l-0.1-0.1c-0.4-0.8-1.6-3.9-2.7-6.9L87,14.8c1.8-0.6,2.9-1,3.8-1.2c1.3-0.4,2-0.5,2.4-0.5
	c0.1,0,0.2,0,0.3,0l0.2,0l-0.1-0.2C93.4,12.2,93.2,11.3,93.2,10.7 M131.5,6.7L131.5,6.7c-0.4,0-0.8,0-1,0l-0.2,0l0,0.2
	c0.1,0.9,0.3,3.8,0.3,7.4l0,3v0.1c0,2.9-0.3,4.7-1.6,6.1v0c-0.9,1-2.5,1.4-3.6,1.4h0c-1.2,0-2.7-0.2-3.9-1.3h0
	c-1.1-1-1.8-2.3-1.8-5.7l0-3.6c0-0.2,0-0.3,0-0.5c0-3.5,0.1-6.3,0.2-7l0-0.2l-0.2,0c-0.3,0-0.9,0.1-1.6,0.1h-0.1c-0.3,0-0.7,0-0.9,0
	l-0.2,0l0,0.2c0.1,0.3,0.1,1.2,0.2,2.6c0,1.3,0.1,3,0.1,4.9l0,4.1c0,3.7,0.9,5.5,2.2,6.7c1.4,1.3,3.6,1.7,5.4,1.7h0
	c1.7,0,3.7-0.3,5.3-1.7c2.2-1.9,2.5-4.8,2.5-7.8v-0.1l0-3c0-0.1,0-0.2,0-0.3c0-3.5,0.1-6.4,0.2-7.1l0-0.2l-0.2,0
	C132.6,6.7,132,6.7,131.5,6.7 M163.2,12.9c-0.3-0.1-0.7-0.2-0.9-0.3l-0.1-0.1l0,0.2c-0.5,2.6-2.6,10.4-3.7,14.5
	c-1.7-2.9-7.3-14.7-8.9-17.7l0,0c-0.2-0.3-0.3-0.5-0.4-0.7c-0.1-0.1-0.2-0.2-0.3-0.3l-0.1,0l-0.2,0.1c-0.1,0.2-0.2,0.5-0.5,1.4
	c-1.2,4.4-4.4,15.6-5.1,17.6l-0.1,0.1l0.2,0c0.2,0,1,0.2,1.2,0.3c0.3,0.1,0.7,0.2,1,0.3l0.1,0.1l0-0.2c0.3-2,2.3-9.4,3.7-14.7
	c2,3.9,6.5,13.8,8,16.4l0,0c0.5,0.9,0.8,1.5,1,1.9c0.1,0.2,0.2,0.3,0.3,0.4c0.1,0.1,0.1,0.2,0.2,0.2l0.1,0l0.2-0.1
	c0.1-0.2,0.3-0.7,0.7-2.2c0.3-1.1,0.6-2.3,1.2-4.4c1.4-5,3.2-10.9,3.7-12.3l0.1-0.1l-0.2,0C164.3,13.1,163.7,13,163.2,12.9
	 M179.8,20.2c-0.3-0.1-0.8-0.4-0.9-0.5l-0.1-0.1l0,0.2c-0.1,0.3-0.4,1.2-1,2.3c-0.6,1.2-1.4,2.7-2.2,4.3l-2.1,4
	c-1.6,3-3.1,5.8-3.6,6.5l-0.1,0.1l0.1,0.1c0.2,0.1,0.9,0.4,1.3,0.6c0.4,0.2,0.8,0.4,1,0.6l0.1,0.1l0-0.2c0.2-0.7,1.7-3.8,3.3-6.7
	l2.1-4c1.7-3.2,3.1-5.7,3.6-6.5l0.1-0.1l-0.1-0.1C181.1,20.8,180.5,20.5,179.8,20.2 M205.9,38.5l0.3-0.1l-0.2-0.1
	c-0.3-0.2-0.8-0.5-1.4-1c-0.2-0.1-0.5-0.4-0.7-0.6l-0.1-0.1l-0.1,0.1c-0.4,0.3-1.2,1-3.3,2.2c-3.2,1.9-7.8,4.3-11,6
	c1.3-4.2,2.4-8.2,3.6-11.9c0.7-2.3,1.2-3.4,1.4-3.9l0-0.1l-0.1-0.1c-0.2-0.1-1-0.7-1.4-1c-0.1-0.1-0.6-0.5-0.9-0.8l-0.2-0.2l0,0.3
	c-0.1,0.9-0.3,2.4-1.1,4.9c-1.5,4.8-2.8,9.6-4.3,14.5c-0.2,0.8-0.3,1.1-0.3,1.3c0,0.1,0,0.2,0.1,0.2l0.2,0.1c0.2,0,0.5-0.2,1.4-0.6
	l0,0c3.6-1.9,9.5-4.9,13.5-7C203.4,39.5,205.3,38.7,205.9,38.5 M202.6,61c0.1-0.1,0.3-0.4,1-0.9c0.7-0.6,1.7-1.4,3.5-2.8l1.4-1.1
	l0,0c0.4,0.4,2.2,2.8,2.7,3.5c0.6,0.8,0.7,1.2,0.8,1.6l0,0.2l0.2-0.1c0.4-0.3,1.2-0.9,1.8-1.2l0.2-0.1l-0.2-0.1
	c-0.2-0.1-0.7-0.6-1.6-1.6c-0.5-0.5-2.3-2.8-2.6-3.2l0-0.1l5.1-4.1l0,0c1.4,1.8,2.3,3,2.8,3.6v0c0.7,1.1,0.9,1.5,1,1.9l0,0.2
	l0.2-0.1c0.7-0.5,1.4-1,1.8-1.1l0.2-0.1l-0.1-0.1c-0.4-0.3-1.1-1.1-1.4-1.6l-3.7-4.6c-0.3-0.4-0.8-1-0.9-1.2l-0.1-0.2l-0.1,0.1
	c-0.4,0.6-2.4,2.2-5.6,4.9l-3.5,2.9c-2.8,2.3-5.2,4-5.9,4.5l-0.1,0.1l0.1,0.1c0.2,0.2,0.6,0.7,1.1,1.3c0.6,0.8,1.8,2.4,4.1,5.3
	c0.6,0.8,0.8,1,0.9,1l0.1,0l0.1,0c0.5-0.2,1.3-0.7,1.9-0.9l0.3-0.1l-0.3-0.1c-0.7-0.3-1.6-1.1-3.1-3.1c-0.7-0.9-1.2-1.5-1.5-2.1
	c-0.1-0.1-0.1-0.2-0.2-0.3C202.6,61.1,202.6,61,202.6,61L202.6,61z M221.2,74.5l0.1,0.1l-0.1,0.1c0.1,0.5,0.6,1.7,1.2,2.9
	c0.3,0.7,0.6,1,0.9,1.2c0.6,0.3,1.3,0.5,2.2,0.5c0.7,0,1.4-0.1,2.1-0.5c1.6-0.8,2.5-2.1,2.5-3.6c0-0.7-0.2-1.6-0.6-2.4
	c-0.3-0.7-0.7-1.4-0.9-1.6l0,0l-0.1,0l-7.2,3.5L221.2,74.5z M218.2,91c-0.3-0.3-0.6-0.9-0.9-1.5c-0.2-0.5-0.4-1-0.4-1.4
	c0-0.5,0.1-1.1,0.4-1.8v0c0,0,0,0,0,0c0.7-1.9,2.8-5.6,3.7-7.4l0-0.2l0-0.1c-0.3-0.5-1-2.1-1.5-3.2l0,0l-0.7,0.3
	c-2.9,1.4-5.4,2.7-6.3,3.3l-0.1,0.1l0-0.2c0-0.2-0.2-0.6-0.4-1c-0.2-0.4-0.6-1.1-0.7-1.3l-0.1-0.1l0.2,0c0.8-0.2,3.8-1.6,6.8-3
	l4.1-2c1.7-0.8,3.1-1.5,4.3-2.1c1.1-0.6,2-1.1,2.3-1.4l0.1-0.1l0.1,0.2c0.2,0.4,0.3,0.7,0.5,1.1c0.2,0.5,1.2,2.2,1.6,3
	c0.7,1.4,1.2,2.8,1.2,4.1c0,0.2,0,0.3,0,0.5c-0.2,1.6-1.2,3.2-2.9,4c-0.9,0.4-1.8,0.6-2.7,0.6c-1.2,0-2.4-0.4-3.6-1
	c-1.2,2.4-2.7,5.2-3.7,7.6v0c-0.6,1.4-0.8,2.4-0.8,2.9l0,0.1l0,0.3L218.2,91z M229.8,98l-0.5,1.4c-0.9,2.5-1.8,3.2-3.3,3.6
	c-0.3,0.1-0.7,0.1-1,0.1c-1.4,0-2.6-0.8-3.1-2.7c-0.1-0.5-0.2-0.9-0.2-1.3c0-1.4,0.5-2.6,1.1-3.3l0.3-0.3l-0.4,0.1
	c-0.7,0.2-2.1,0.4-2.5,0.4l-0.1,0l0,0.1c-0.2,0.5-0.3,1.3-0.3,2.1c0,0.8,0.1,1.6,0.3,2.4c0.3,1.3,1,2.6,2,3.6c1.2,1,2.5,1.3,3.6,1.3
	c0.5,0,0.9-0.1,1.3-0.1c1.9-0.5,3.4-1.5,4.6-4.9l0.5-1.3c0.5-1.3,0.9-2.1,1.4-2.6c0.5-0.5,1-0.7,1.7-0.9c0.2-0.1,0.5-0.1,0.7-0.1
	c1.3,0,2.4,0.9,2.8,2.5c0.1,0.5,0.2,1,0.2,1.4c0,1.2-0.4,2-0.7,2.4l-0.2,0.3l0.3-0.1c0.8-0.2,2.1-0.4,2.4-0.4h0l0.1,0l0-0.1
	c0-0.2-0.1-0.7-0.1-1.3c0-0.6-0.1-1.5-0.3-2.5c-0.7-3-2.8-4.5-5-4.5c-0.4,0-0.8,0-1.2,0.1C232.5,93.8,231,94.9,229.8,98
	 M235.5,116.7l-4.6,0.3c-2.9,0.2-5.7,0.3-7,0.3c-0.2,0-0.4,0-0.5,0l-0.2,0l0,0.1c0,0.2,0.1,1,0.2,1.5c0,0.3,0,0.6,0,0.9
	c0,0.1,0,0.2,0,0.3l0,0.2l0.2,0c0.7-0.2,4.1-0.5,7.4-0.7l4.5-0.3c3.4-0.2,6.1-0.3,7.2-0.3c0.1,0,0.2,0,0.3,0l0.2,0l0-0.1
	c0-0.2-0.1-0.8-0.2-1.5c0-0.3,0-0.7,0-1l0-0.1l0-0.2l-0.2,0.1c-0.3,0.1-1.2,0.2-2.5,0.3C239,116.5,237.3,116.6,235.5,116.7
	 M243.5,131.1c-0.5-0.1-1.7-0.5-2.1-0.7l-0.2-0.1l0.1,0.2c0.1,0.3,0.1,0.7,0.1,1.3c0,0.6,0,1.3-0.1,2.2c-0.1,1.6-0.2,2.3-0.4,3.4
	l-10.3-1.2c-3.3-0.4-6.6-0.9-7.4-1.1l-0.2,0v0.2c0,0.4,0,1-0.1,1.6c0,0.4-0.1,0.8-0.2,1l-0.1,0.2l0.2,0c0.9,0,4.2,0.3,7.4,0.7
	l10.3,1.2c-0.2,1.9-0.4,3-0.6,3.9c-0.3,1.7-0.5,2.4-0.8,2.7l-0.1,0.2l0.2,0c0.8,0.1,1.6,0.3,2.2,0.5l0.2,0.1l0-0.2
	c0-0.1,0-0.2,0-0.4c0-0.7,0.1-2.2,0.3-3.4l1-8.3c0.3-2.2,0.5-3.1,0.7-3.7l0.1-0.1L243.5,131.1z M235.2,157.2
	c-1.3,0.3-6.5,1.4-8.3,1.7l0,0h0c-0.1,0-0.2,0-0.4,0c-0.3,0-0.6,0-1-0.2c-3.9-1.3-6.1-2.2-6.9-2.6l-0.2-0.1l0,0.2
	c0,0.2-0.3,1.1-0.4,1.4c-0.1,0.4-0.3,0.9-0.4,1l-0.1,0.1l0.2,0c1,0.2,3.8,1.1,6.9,2.2c0.5,0.2,0.8,0.4,1.2,0.8l0,0l0,0
	c1.2,1.1,4.8,5.3,5.6,6.4c0.7,0.9,2,2.6,2.4,3.2l0.2,0.4l0-0.4c0-0.1,0.2-0.8,0.5-1.5c0.1-0.2,0.2-0.6,0.3-0.8l0.1-0.1l-0.1-0.1
	c-0.4-0.3-1.3-1.2-1.7-1.7v0l0,0c-0.9-0.9-4.1-4.6-5.5-6.2c1.3-0.3,7.1-1.4,7.9-1.6c0.9-0.1,2.3-0.4,2.8-0.4l0.1,0l0-0.1
	c0-0.2,0.3-1.2,0.5-1.7c0.2-0.5,0.3-0.9,0.5-1.2l0.2-0.3l-0.3,0.2C238.3,156.4,236.4,156.9,235.2,157.2 M99.9,221l0,0.1l0,0.2v0l0,0
	c-0.1,0.4-0.7,2.2-2,6.5l-1.3,4.7c-0.9,3-1.6,5.9-1.8,6.9l0,0.1l-0.1-0.1c-0.3-0.1-0.5-0.2-1-0.3c-0.6-0.2-1.1-0.3-1.3-0.3l-0.2,0
	l0.1-0.1c0.4-0.9,1.2-3.8,2.1-6.9l1.3-4.6c0.5-1.7,0.8-2.7,0.9-3.4c0.1-0.5,0.2-0.8,0.2-0.9c-0.2,0-0.8,0.1-1.5,0.3
	c-0.7,0.2-1.5,0.3-1.9,0.4l-0.2,0l0.1-0.2c0.1-0.3,0.6-1.4,0.6-1.6l0-0.1l0.1,0c1.3-0.1,3.8-0.5,5.2-0.8c0.2-0.1,0.4-0.1,0.6-0.1
	l0.1,0L99.9,221z M117.7,228.4c0-0.1,0-0.2,0-0.3c0-1.4-0.9-2.7-2.8-2.9c-0.1,0-0.2,0-0.3,0c-1.6,0-2.6,1.2-2.8,2.6
	c0,0.1,0,0.3,0,0.4c0,1.6,1.1,2.6,2.9,3.7C116.4,231,117.6,229.9,117.7,228.4 M116.3,235.8c-0.6-0.7-1.5-1.4-2.7-2.1
	c-2.1,1-3.4,2-3.6,3.9c0,0.1,0,0.3,0,0.4c0,1.9,1.3,3.4,3.5,3.6c0.2,0,0.3,0,0.5,0c1.9,0,3.1-1.2,3.3-3c0-0.2,0-0.3,0-0.4
	C117.3,237.3,116.9,236.5,116.3,235.8 M115.5,223.6c2.7,0.3,4.6,2.1,4.6,4.4c0,0.1,0,0.3,0,0.4c-0.2,2.5-2.2,3.6-3.8,4.3
	c1.7,1.2,3.6,2.6,3.6,5.2c0,0.2,0,0.4,0,0.5l-0.1,0l0.1,0c-0.3,2.7-2.6,4.8-5.9,4.8c-0.3,0-0.5,0-0.8,0c-3.1-0.3-5.4-2.3-5.4-5.1
	c0-0.2,0-0.3,0-0.5c0.1-1.3,0.8-2.3,1.6-3.1c0.8-0.7,1.9-1.2,2.9-1.7c-1.6-1.2-2.8-2.5-2.8-4.4c0-0.2,0-0.3,0-0.5
	c0.2-2.2,1.9-4.3,5.1-4.3C114.9,223.6,115.2,223.6,115.5,223.6 M140.2,223.6l-0.2,0c-0.1,0-0.2,0-0.3,0l-8.1,0.7
	c-1.3,0.1-2.1,0.2-2.6,0.2c-0.2,0-0.3,0-0.4,0l-0.1,0l0,0.1c0,0.4-0.1,1.7-0.3,2.2l-0.1,0.3l0.3-0.2c0.3-0.2,1.4-0.6,4.1-0.8
	l4.9-0.4c-2.2,5.3-3.6,9.7-4.6,13.1c-0.5,1.9-0.9,3.7-0.9,4.6l0,0.2l0.2-0.1c0.5-0.2,1.9-0.5,2.5-0.5l0.1,0l0-0.1
	c0-1,0.3-2.7,0.5-3.9c1-4.8,3.3-11.1,4.9-14.6v0c0.2-0.4,0.2-0.5,0.2-0.6v0L140.2,223.6z M157.8,238.7c-0.4-1-1.2-3.8-2-6.9
	l-1.3-4.8c-1.2-4.3-1.5-6.1-1.6-6.5l0,0v0l-0.1-0.2c0,0-0.1-0.1-0.2-0.1l0,0c-0.1,0-0.1,0.1-0.2,0.2c-0.1,0.1-0.2,0.2-0.3,0.3
	c-1,1-2.9,2.6-4,3.3l-0.1,0l0,0.1c0,0.2,0.3,1.4,0.3,1.7l0,0.2l0.2-0.2c0.3-0.2,0.9-0.8,1.5-1.3c0.3-0.3,0.6-0.5,0.8-0.7
	c0.1-0.1,0.2-0.2,0.3-0.2l0,0c0,0,0,0.1,0,0.1c0.1,0.4,0.4,1.5,1.1,4.1l1.2,4.6c0.8,3.1,1.5,6,1.7,7l0,0.2l0.1-0.1
	c0.3-0.1,0.7-0.3,1.3-0.4c0.5-0.1,0.7-0.2,1-0.2l0.2,0L157.8,238.7z M126.4,205.5L126.4,205.5c0,0.3-0.6,0.5-1.4,0.5
	s-1.4-0.2-1.4-0.5l-2.6-25.3c2.1,0.5,4.5,0.5,6.5,0.2c0.5-0.1,1-0.1,1.5-0.2L126.4,205.5z M126.7,179.2c2.1-0.1,6.4-0.9,4.9-4
	c-0.8-1.4-2.1-2.7-3.3-3.8c-0.9-0.9-1.9-1.6-2.9-2.4c-0.6-0.5-0.5-0.4-1.1,0.1c-1,0.8-2,1.6-2.9,2.5c-1.4,1.3-5,4.5-2.5,6.5
	c0.9,0.7,2.2,0.9,3.2,1.1C123.6,179.3,125.2,179.3,126.7,179.2 M187.9,175.6h-48.1h-0.8h-1.2c0,0,0,0,0,0c0,0,0,0,0,0h-4.1
	c-0.1,0-0.2-0.1-0.2-0.1l-0.1-0.3c0-0.1-0.1-0.3-0.2-0.4c0-0.1-0.2-0.3-0.2-0.3l-0.1-0.1c0,0,0.1,0,0.1,0h3.5h0.6h1.2h0.3h46.9
	c0.1,0,0.1,0,0-0.1l-0.5-0.5c-0.1-0.1-0.2-0.1-0.3-0.1h-46h-0.8h-1.3h-0.2h-4c-0.1,0-0.2,0-0.2-0.1l-1-1.1c-0.1-0.1,0-0.1,0-0.1h3.5
	h1.2h1.5h0.1h46.1c0.1,0,0.1,0,0-0.1l-0.5-0.5c-0.1-0.1-0.2-0.1-0.3-0.1h-45.2h-0.6h-1.6H135h-4.7c-0.1,0-0.2,0-0.3-0.1
	c0,0-0.2-0.2-0.3-0.3c-0.3-0.3-0.8-0.8-0.8-0.8c-0.1-0.1,0-0.1,0-0.1h4.4h0.9h1.9h0.2h44.9c0.1,0,0.1,0,0-0.1l-0.4-0.3
	c-0.1,0-0.1-0.1-0.1-0.1c0,0-0.1,0-0.1-0.1l-0.4-0.3l-0.2-0.1c-0.4-0.1-1-0.2-2-0.1l-0.1,0c-0.4,0-0.7,0-1.1,0.1
	c-0.4,0-0.8,0-1.2,0.1c-1.2,0-2.8,0-4.1,0c-5.3-0.2-12.3-0.9-16.8-1.6c-5.2-0.8-14.9-1.8-24.3,0.9c-0.2,0.1-0.5,0.1-0.7,0.2
	c-0.6,0.2-1.7,0.6-1.7,0.6c0,0-0.1,0-0.1,0c-0.1-0.1-1.4-1.2-2.2-1.8v-65c10.8-6.2,22.4-4.3,28.4-2.9c7,1.6,19.7,3.4,24,2.4
	c1.4-0.3,2.2-0.3,2.6,0l0,0c0.2,0.1,0.4,0.2,0.5,0.3v65.5c0,0.1,0,0.2,0.1,0.3l0.5,0.5c0.1,0.1,0.1,0,0.1,0v-65.8
	c0.4,0.3,0.9,0.5,1.3,0.8v66.4c0,0.1,0,0.2,0.1,0.3l0.5,0.5c0.1,0.1,0.1,0,0.1,0v-66.7c0.4,0.3,0.9,0.5,1.3,0.8V172
	c0,0.1,0,0.2,0.1,0.3l0.5,0.5c0.1,0.1,0.1,0,0.1,0v-67.7c0.3,0.2,0.6,0.4,0.9,0.5l0,0c0.3,0.2,0.7,0.9,0.8,1.9
	C188.1,108.1,187.9,171.3,187.9,175.6 M117.6,173.5c0.1,0,0.2,0,0.2-0.1l1-1.1c0.1-0.1,0-0.1,0-0.1h-3.5h-1.2h-1.5h-0.1H66.6
	c-0.1,0-0.1,0,0-0.1l0.5-0.5c0.1-0.1,0.2-0.1,0.3-0.1h45.2h0.6h1.6h0.2h4.7c0.1,0,0.2,0,0.3-0.1c0,0,0.2-0.2,0.3-0.3
	c0.3-0.3,0.8-0.8,0.8-0.8c0.1-0.1,0-0.1,0-0.1h-4.4h-0.9h-1.9h-0.2H68.7c-0.1,0-0.1,0,0-0.1l0.4-0.3c0.1-0.1,0.1-0.1,0.1-0.1
	s0.1,0,0.1-0.1l0.4-0.3l0.2-0.1c0.4-0.1,1-0.2,2-0.1l0.1,0c0.4,0,0.7,0,1.1,0.1c0.4,0,0.8,0,1.2,0.1c1.2,0,2.8,0,4.1,0
	c5.3-0.2,12.3-0.9,16.8-1.6c5.2-0.8,14.9-1.8,24.3,0.9c0.2,0.1,0.5,0.1,0.7,0.2c0.6,0.2,1.7,0.6,1.7,0.6c0,0,0.1,0,0.1,0
	c0.1-0.1,1.4-1.2,2.2-1.8v-65c-10.8-6.2-22.4-4.3-28.4-2.9c-7,1.6-19.7,3.4-24,2.4c-1.4-0.3-2.2-0.3-2.6,0l0,0
	c-0.2,0.1-0.4,0.2-0.5,0.3v65.5c0,0.1,0,0.2-0.1,0.3l-0.5,0.5c-0.1,0.1-0.1,0-0.1,0v-65.8c-0.5,0.3-0.9,0.5-1.4,0.8v66.4
	c0,0.1,0,0.2-0.1,0.3l-0.5,0.5c-0.1,0.1-0.1,0-0.1,0v-66.7c-0.4,0.3-0.9,0.5-1.3,0.8V172c0,0.1,0,0.2-0.1,0.3l-0.5,0.5
	c-0.1,0.1-0.1,0-0.1,0v-67.7c-0.3,0.2-0.6,0.4-0.9,0.5l0,0c-0.3,0.2-0.7,0.9-0.8,1.9c0,0.6,0.1,63.8,0.1,68h48.1h0.8h1.2
	c0,0,0,0,0,0c0,0,0,0,0,0h4.1c0.1,0,0.2-0.1,0.2-0.1l0.1-0.3c0-0.1,0.1-0.3,0.1-0.4c0-0.1,0.2-0.3,0.2-0.3l0.1-0.1c0,0-0.1,0-0.1,0
	h-3.5h-0.6h-1.2h-0.3H64.5c-0.1,0-0.1,0,0-0.1l0.5-0.5c0.1-0.1,0.2-0.1,0.3-0.1h46h0.8h1.3h0.2H117.6 M112.1,84.5
	c1.6,1.5,3.1,2.3,4.1,2.8H115c-0.5,0-0.8,0.5-0.8,1.1c0,0.6,0.4,1.1,0.8,1.1H135c0.5,0,0.8-0.5,0.8-1.1c0-0.6-0.4-1.1-0.8-1.1h-1.9
	c0.3-0.4,0.9-0.9,2.1-1.5c6.8-3.3,7.8-9.4,6.9-13.3c-0.9-3.5-2.3-5.6-2.3-5.6c0.1,0.2,0.3,1,0.3,2.3c0,0.7-0.2,1.5-0.3,2.2
	c-0.2,0.9-0.4,1.7-0.7,2.6c-0.6,1.5-1.4,3-2.5,4.1c-0.1,0.1-0.3,0.3-0.4,0.4c-0.3,0.3-0.7,0.6-1.1,0.9c-3,2.1-7.6,4.4-7.6,4.4
	s0.3-0.6,2.9-3.4c0.4-0.4,0.8-0.8,1.1-1.2c0.6-0.6,1.2-1.3,1.8-2c1.1-1.3,2.2-2.6,3-4c0.8-1.4,1.6-2.9,1.9-4.5
	c0.3-1.6,0.2-3.3-0.3-4.9c0,0,0-0.1,0-0.1c-0.1-0.4-0.2-0.7-0.4-1.1c-1-2.7-3.2-5.5-5.2-7.3c-0.1,6.2-1.3,8.2-2.3,9.9
	c-1.8,3.3-6.4,8.2-8,11.7c-1.6,3.5-0.6,7.3-0.6,7.3s0,0.3-1.4-2.1c-1-1.9-1-3.8-0.2-6.3c0.6-1.5,1.2-2.9,2-4.3
	c0.5-0.9,1.8-2.8,1.9-2.9c0.2-0.3,1.9-2.6,2.5-3.6c0.9-1.3,1.7-2.7,2.3-4.1c0.6-1.5,0.9-3.2,0.9-4.8c0-0.2,0-0.4,0-0.6
	c0-1-0.1-2-0.3-2.9c-0.1-0.5-0.2-1.1-0.4-1.6c-0.8-3.2-3.1-5.3-3.1-5.3s0.6,4.3-4.9,10.4c-2.3,2.6-3.8,3.9-6.1,6.4
	c-1.5,1.6-3.6,3.7-5.3,6.8C105.6,75.9,108.7,81.4,112.1,84.5 M125,100.7c1-0.3,10.4-4.8,10.6-5c0,0,0.1-0.2,0.2-0.3c0,0,0,0,0,0
	c0,0,0-0.1,0-0.1c0-0.2,0.1-0.4,0.1-0.6c0-0.4,0.1-0.9,0.1-1.5c0,0,0,0,0,0c0,0,0,0,0,0c0-1.4-0.2-2.5-0.4-2.5h-21.1
	c-0.2,0-0.4,1.1-0.4,2.5c0,0,0,0,0,0c0,0,0,0,0,0c0,0.6,0,1.1,0.1,1.5c0,0.2,0,0.4,0.1,0.6c0,0,0,0.1,0,0.1c0,0,0,0,0,0
	c0,0.2,0.2,0.3,0.2,0.3C114.6,95.9,124,100.4,125,100.7"/>
<path fill="#092D74" d="M90,116.6l-0.1-0.1v0v-0.1l0,0l0.1-0.2l0,0l0.2,0h0c0.4,0,1.1,0,1.1,0c0,0,0.7,0,1.1,0h0h0l0.2,0l0,0
	l0.1,0.2v0v0.1l0,0l0,0l-0.1,0.1h0h0c-0.1,0-0.1,0-0.2,0c-0.1,0-0.2,0.1-0.2,0.1c0,0.1-0.1,0.2-0.1,0.4c0,0.3,0,0.7,0,2.4v2
	c0,0.1,0,0.1,0,0.2c0,1,0,1.8,0.1,2.2v0c0,0.2,0,0.3,0.1,0.3c0,0.1,0.1,0.1,0.2,0.1h0c0.1,0,0.4,0,0.5,0h0l0,0l0.1,0.1l0,0l0.1,0.1
	l0,0l-0.1,0.2l0,0l-0.2,0h0c-0.6,0-1.3,0-1.4,0c-0.1,0-0.8,0-1.1,0h0l0,0l-0.2,0l0,0l-0.1-0.2l0,0l0.1-0.1l0,0l0.1,0h0
	c0.1,0,0.2,0,0.3,0l0,0h0c0.1,0,0.1,0,0.1-0.1c0-0.1,0.1-0.2,0.1-0.4c0-0.4,0.1-1.2,0.1-2.2v-0.2v-2c0-1.7,0-2,0-2.4
	c0-0.2,0-0.3-0.1-0.4c0-0.1-0.1-0.1-0.2-0.1h0l0,0h0C90.3,116.7,90.1,116.7,90,116.6L90,116.6L90,116.6L90,116.6L90,116.6z
	 M94.2,124.9L94.2,124.9l0.2,0l0,0h0c0.5,0,1,0,1.1,0h0c0.1,0,0.5,0,1.2,0c0.1,0,0.1,0,0.2,0l0,0l0.1-0.2l0,0v-0.1v0l-0.1-0.1l0,0
	l0,0h0c-0.1,0-0.3,0-0.5-0.1c-0.1,0-0.2-0.1-0.2-0.2c-0.1-0.2-0.1-0.5-0.1-0.9v-0.1l-0.1-4.9c0.5,0.6,1.6,1.7,2.6,2.9
	c1.2,1.3,2.8,2.9,2.9,3c0.3,0.3,0.5,0.5,0.6,0.6c0.1,0.1,0.2,0.2,0.3,0.2l0,0l0.1-0.1l0,0l0,0c0.1-0.1,0.1-0.1,0.1-0.3v0
	c0-0.1,0-0.3,0-0.6l0-6.5v0c0-0.3,0-0.5,0.1-0.6c0-0.1,0.1-0.1,0.2-0.2h0v0c0.1,0,0.2,0,0.2,0h0l0.1,0l0,0l0.1-0.1l0,0v0v0
	c0-0.1-0.1-0.2-0.2-0.2h0l-0.2,0h0h0c-0.5,0-0.8,0-0.9,0c-0.1,0-0.7,0-1.2,0h0l-0.2,0h0c-0.1,0-0.2,0.1-0.2,0.2v0v0l0,0.1l0,0
	l0.2,0.1l0,0h0c0.1,0,0.3,0,0.5,0.1c0.1,0,0.2,0.1,0.2,0.2c0.1,0.1,0.1,0.4,0.1,0.7l0.1,5.3c-0.5-0.5-1.5-1.6-2.4-2.6
	c-1.7-1.8-3.4-3.6-3.5-3.8h0l0,0h0c0,0-0.1-0.1-0.2-0.2l0,0l-0.1-0.1l0,0l-0.1-0.1l0,0l-0.1,0.1l0,0l0,0c-0.1,0.1-0.1,0.3-0.1,0.6
	l0,6.4c0,0.5,0,0.8-0.1,1c-0.1,0.2-0.1,0.2-0.2,0.2h0l0,0c-0.1,0-0.3,0.1-0.4,0.1h0h0h0l-0.1,0.1l0,0l0,0v0.1v0L94.2,124.9
	L94.2,124.9z M78.7,136.5l-0.2-0.1l0,0l0,0l-0.1,0.1l0,0l0,0.1l0,0l0,0.1c0,0.2-0.1,0.4-0.3,0.6c-0.2,0.2-0.6,0.3-1.2,0.3h-0.1h0
	c-0.9,0-1.1-0.1-1.2-0.2h0l0,0c0,0-0.1-0.2-0.2-0.6c0-0.4,0-1,0-1.8v-2c0-1.7,0-2,0-2.4c0-0.2,0-0.3,0.1-0.4c0-0.1,0.1-0.1,0.2-0.1
	c0.1,0,0.3,0,0.3,0h0h0l0.1-0.1l0,0l0,0v-0.1v0l-0.1-0.2l0,0l-0.2,0h0h0c-0.3,0-1.1,0-1.2,0h0c0,0-0.8,0-1.3,0h0l-0.2,0l0,0
	l-0.1,0.2l0,0v0.1v0l0.1,0.1l0,0l0,0h0h0h0c0.1,0,0.3,0,0.3,0l0,0h0c0.2,0,0.2,0.1,0.3,0.1c0,0.1,0.1,0.2,0.1,0.4c0,0.3,0,0.7,0,2.4
	v2c0,1.1,0,1.9-0.1,2.4c0,0.2,0,0.3-0.1,0.4c0,0.1-0.1,0.1-0.1,0.1l0,0h0c-0.1,0-0.2,0-0.3,0h0l-0.1,0l0,0l-0.1,0.1l0,0l0.1,0.2l0,0
	l0.2,0l0,0h0c0.2,0,0.4,0,0.6,0c0.2,0,0.4,0,0.5,0c0.3,0,0.7,0,1.1,0l0,0h0c0.5,0,1,0,1.8,0c0.3,0,0.5,0,0.6-0.1
	c0.1-0.1,0.2-0.2,0.2-0.3h0l0,0l0,0c0.1-0.3,0.2-1,0.2-1.1v0L78.7,136.5L78.7,136.5z M86.6,134.1L86.6,134.1L86.6,134.1v-1.2
	c0-1.7,0-2,0-2.4v0c0-0.2,0-0.3,0.1-0.4c0-0.1,0.1-0.1,0.2-0.1c0.1,0,0.2,0,0.2,0h0h0l0.1-0.1l0,0l0,0v-0.1v0l-0.1-0.2l0,0l-0.2,0h0
	h0c-0.3,0-0.9,0-0.9,0h0c-0.1,0-0.7,0-1.2,0h0l-0.2,0l0,0l-0.1,0.2l0,0v0.1v0l0.1,0.1l0,0l0,0h0h0c0.1,0,0.3,0,0.3,0h0l0,0
	c0.2,0,0.2,0.1,0.3,0.1c0,0.1,0.1,0.2,0.1,0.4c0,0.3,0,0.7,0,2.4v1.4l0,0c0,1.1-0.1,2-0.6,2.6c-0.4,0.4-1,0.7-1.6,0.7h0
	c-0.6,0-1.1-0.1-1.6-0.6c-0.4-0.4-0.8-1.1-0.8-2.6v-1.6c0-1.7,0-2,0-2.4v0c0-0.2,0-0.3,0.1-0.4c0-0.1,0.1-0.1,0.2-0.1h0l0,0
	c0.1,0,0.2,0,0.2,0h0h0l0.1-0.1l0,0l0,0v-0.1v0l-0.1-0.2l0,0l-0.2,0h0h0c-0.3,0-1,0-1.1,0h0c-0.1,0-0.8,0-1.3,0h0l-0.2,0l0,0
	l-0.1,0.2l0,0v0.1v0l0.1,0.1l0,0l0,0h0h0c0.1,0,0.3,0,0.3,0h0h0h0c0.2,0,0.2,0.1,0.3,0.1c0,0.1,0.1,0.2,0.1,0.4c0,0.3,0,0.7,0,2.4
	v1.6v0c0,1.6,0.4,2.5,1,3l0,0h0c0.8,0.8,2,0.8,2.4,0.8h0c0.7,0,1.5-0.1,2.4-0.9C86.5,136.6,86.6,135.3,86.6,134.1 M88,138.1
	L88,138.1l0.2,0h0h0c0.3,0,0.8,0,0.9,0c0.1,0,0.6,0,1,0c0.1,0,0.1,0,0.2,0l0,0l0.1-0.2l0,0v-0.1v0l-0.2-0.1l0,0l0,0h0
	c-0.1,0-0.2,0-0.4-0.1l0,0h0c-0.1,0-0.2-0.1-0.2-0.2c0-0.2,0-0.4,0-0.6l0.4-4.7c0.4,0.8,1.2,2.6,1.3,2.8c0.1,0.1,1,2,1.3,2.6
	c0.1,0.2,0.2,0.3,0.2,0.4l0,0l0.1,0.1l0,0l0.1,0.1l0,0l0.1-0.1l0,0l0,0c0.1-0.1,0.2-0.2,0.3-0.6l2.5-5.4l0.5,5.3l0,0.2l0,0.1
	l-0.1,0.1l0,0l0,0v0.1v0l0.1,0.2l0,0l0,0c0.1,0,0.2,0,0.3,0h0l0,0c0.4,0,1.6,0.1,1.9,0.1c0.1,0,0.1,0,0.2,0c0,0,0,0,0,0l0,0
	c0.1,0,0.2-0.1,0.2-0.2v0v0l-0.2-0.1l0,0l0,0h0c-0.1,0-0.4,0-0.7-0.1c-0.2-0.1-0.3-0.2-0.4-0.4c-0.1-0.2-0.1-0.4-0.1-0.6l-0.7-6.8
	c0-0.1,0-0.2-0.1-0.3h0c0,0,0,0,0,0v0c0-0.1-0.1-0.2-0.2-0.2h0l0,0l-0.2,0.1l0,0v-0.1l-3.2,6.9l-3.3-6.7l-0.1-0.2l0,0l-0.2-0.1l0,0
	l-0.2,0.1l0,0l-0.1,0.2v0l-0.8,7.2c0,0.2,0,0.4-0.1,0.6c-0.1,0.1-0.1,0.2-0.2,0.2h0c-0.2,0-0.2,0-0.3,0h0h0l-0.1,0.1l0,0l0,0v0.1v0
	L88,138.1L88,138.1z M100.2,138.2L100.2,138.2c0.3,0,1,0,1.1,0c0,0,0.8,0,1.4,0h0l0.2,0l0,0l0.1-0.2l0,0l-0.1-0.1l0,0l-0.1,0l0,0h0
	c-0.1,0-0.3,0-0.5,0h0c-0.1,0-0.2-0.1-0.2-0.1c0-0.1-0.1-0.2-0.1-0.3v0c-0.1-0.4-0.1-1.2-0.1-2.2c0-0.1,0-0.1,0-0.2v-2
	c0-1.7,0-2,0-2.4c0-0.2,0-0.3,0.1-0.4c0-0.1,0.1-0.1,0.2-0.1c0.1,0,0.2,0,0.2,0h0h0l0.1-0.1l0,0l0,0v-0.1v0l-0.1-0.2l0,0l-0.2,0h0h0
	c-0.3,0-1,0-1.1,0c-0.1,0-0.8,0-1.1,0h0l-0.2,0l0,0l-0.1,0.2l0,0v0.1v0l0.1,0.1l0,0l0,0h0c0.1,0,0.2,0,0.3,0h0
	c0.1,0,0.1,0.1,0.2,0.1c0,0.1,0.1,0.2,0.1,0.4c0,0.3,0,0.7,0,2.4v2c0,0.1,0,0.1,0,0.2c0,1,0,1.8-0.1,2.2c0,0.2,0,0.3-0.1,0.4
	c0,0.1-0.1,0.1-0.1,0.1h0c-0.1,0-0.2,0-0.3,0h0l-0.1,0l0,0l-0.1,0.1l0,0l0.1,0.2l0,0L100.2,138.2L100.2,138.2z M113.1,129.5
	L113.1,129.5L113.1,129.5l-0.2,0h0h0c-0.5,0-0.8,0-0.9,0h0h0c-0.1,0-0.6,0-1.1,0h0l-0.2,0h0l0,0c-0.1,0-0.2,0.1-0.2,0.2l0,0v0l0,0.1
	l0,0l0.2,0.1l0,0h0c0.1,0,0.3,0,0.5,0c0.1,0,0.2,0.1,0.2,0.2c0.1,0.1,0.1,0.4,0.1,0.7l0.1,5.3c-0.5-0.5-1.5-1.6-2.4-2.6
	c-1.7-1.8-3.4-3.6-3.5-3.8h0l0,0l0,0c0,0-0.1-0.1-0.2-0.2l-0.1-0.1l0,0l-0.1-0.1l0,0l-0.1,0.1l0,0l0,0c-0.1,0.1-0.1,0.3-0.1,0.6
	l0,6.4v0c0,0.5,0,0.8-0.1,1c-0.1,0.2-0.1,0.2-0.2,0.2l0,0c-0.1,0-0.3,0.1-0.4,0.1h0h0h0l-0.1,0.1l0,0l0,0v0.1v0l0.1,0.2l0,0l0.2,0h0
	h0c0.5,0,1,0,1.1,0c0.1,0,0.5,0,1.2,0c0.1,0,0.1,0,0.2,0l0,0l0.1-0.2l0,0v-0.1v0l-0.1-0.1l0,0l0,0h0c-0.1,0-0.3,0-0.5-0.1
	c-0.1,0-0.2-0.1-0.2-0.2c-0.1-0.2-0.1-0.5-0.1-0.9v-0.1h0l-0.1-4.9c0.5,0.6,1.6,1.7,2.6,2.9c1.2,1.3,2.8,2.9,2.9,3
	c0.3,0.3,0.5,0.5,0.6,0.6c0.1,0.1,0.2,0.2,0.3,0.2h0l0.1-0.1l0,0l0,0c0.1-0.1,0.1-0.2,0.1-0.3c0-0.1,0-0.3,0-0.6l0-6.5v0
	c0-0.3,0-0.5,0.1-0.6c0-0.1,0.1-0.1,0.2-0.2v0h0c0.1,0,0.2,0,0.2,0h0l0.1,0l0,0l0.1-0.1l0,0l0,0v0
	C113.3,129.6,113.2,129.6,113.1,129.5 M119.8,136.6L119.8,136.6c0-0.1-0.1-0.2-0.2-0.2l0,0h0l0,0l-0.1,0.1l0,0l-0.1,0.2l0,0v0
	c-0.1,0.4-0.2,0.6-0.4,0.7c-0.2,0.1-0.7,0.1-1,0.1H118h0c-0.5,0-0.8,0-0.9-0.1h0c-0.1-0.1-0.2-0.3-0.2-0.6c0-0.1,0-0.3,0-0.5
	c0-0.5,0-1.1,0-1.4v-0.9c0.3,0,1.2,0,1.5,0.1h0c0.2,0,0.3,0.1,0.4,0.1l0.1,0.2v0l0,0c0,0.1,0,0.2,0,0.3v0v0l0.1,0.1l0,0l0,0h0.1h0
	l0.1-0.1l0,0l0,0c0.1-0.1,0.1-0.2,0.1-0.3v0v0c0-0.1,0-0.5,0-0.7v0v0c0-0.4,0.1-0.5,0.1-0.6v0l0-0.1l0,0l-0.1-0.1l0,0l-0.2,0.1l0,0
	l-0.1,0.1h0c0,0.1-0.2,0.1-0.4,0.1c-0.2,0-1.4,0-1.7,0v-3c0.3,0,1.3,0,1.4,0c0.3,0,0.5,0.1,0.5,0.1c0.1,0.1,0.1,0.1,0.1,0.2
	c0,0.1,0.1,0.3,0.1,0.3v0v0l0,0.2l0,0l0.2,0.1l0,0h0.1h0l0.1-0.2l0,0l0,0l0,0c0-0.2,0-0.6,0.1-0.7c0-0.3,0.1-0.4,0.1-0.5v0v0
	l-0.1-0.1l0-0.1l0,0l-0.3,0.1c-0.1,0-0.2,0-0.4,0.1c-0.2,0-2.4,0-2.5,0l-0.5,0c-0.2,0-0.5,0-0.8,0h0l-0.2,0l0,0l-0.1,0.2l0,0v0.1v0
	l0.1,0.1l0,0l0,0h0h0c0.1,0,0.3,0,0.3,0h0l0,0c0.2,0,0.2,0.1,0.3,0.1c0,0.1,0.1,0.2,0.1,0.4c0,0.3,0,0.7,0,2.4v2v0.2
	c0,1,0,1.8-0.1,2.2c0,0.2,0,0.3-0.1,0.4c0,0.1-0.1,0.1-0.1,0.1h0l0,0c-0.1,0-0.2,0-0.3,0h0l-0.1,0l0,0l-0.1,0.1l0,0l0.1,0.2l0,0
	l0.2,0h0h0c0.2,0,0.4,0,0.6,0h0h0h0c0.2,0,0.4,0,0.4,0c0.2,0,0.4,0,0.9,0h0h0c0.4,0,1,0,1.9,0c0.2,0,0.4,0,0.5,0
	c0.1-0.1,0.2-0.2,0.2-0.3h0l0,0v0c0.1-0.3,0.1-1,0.1-1.1v0L119.8,136.6z M90.6,142.9l-0.1-0.1l0,0h0c-0.1,0-0.2,0-0.3,0.1l0,0h0
	c-0.2,0-0.4,0.1-0.8,0.1h-4.2c-0.1,0-0.5,0-0.9-0.1h0c-0.1,0-0.2,0-0.3-0.1h0c-0.1,0-0.1-0.1-0.2-0.1l0,0l-0.1,0.1l0,0l-0.1,0.2l0,0
	l0,0v0l0,0c0,0-0.1,0.3-0.1,0.6c-0.1,0.3-0.1,0.5-0.1,0.6v0l0,0.1l0,0l0.1,0.1l0,0l0.1-0.1l0,0l0.1-0.1h0l0,0c0-0.1,0.1-0.1,0.2-0.3
	c0.1-0.1,0.1-0.2,0.3-0.2c0.1,0,0.4-0.1,0.7-0.1l1.5,0v4.5v0.2c0,1,0,1.8-0.1,2.2c0,0.2,0,0.3-0.1,0.4c0,0.1-0.1,0.1-0.1,0.1h0
	c-0.1,0-0.2,0-0.3,0h0h0l-0.1,0l0,0l-0.1,0.1l0,0l0.1,0.2l0,0l0.2,0h0h0c0.3,0,1,0,1.1,0c0,0,0.8,0,1.4,0h0l0.2,0l0,0l0.1-0.2l0,0
	l-0.1-0.1l0,0l-0.1-0.1l0,0h0h0c-0.1,0-0.3,0-0.5,0h0c-0.1,0-0.2-0.1-0.2-0.1c0-0.1-0.1-0.2-0.1-0.3v0v0c0-0.4-0.1-1.2-0.1-2.2
	c0-0.1,0-0.1,0-0.2v-4.5l1.3,0c0.5,0,0.8,0.1,1,0.2c0.2,0.1,0.2,0.2,0.2,0.3l0,0.1c0,0.1,0,0.1,0,0.2l0,0l0.2,0.1l0,0l0.2-0.1l0,0
	l0-0.2v0v0c0-0.1,0-0.9,0-1.2v0L90.6,142.9L90.6,142.9z M99.3,142.9l-0.2,0h0h0c-0.3,0-0.9,0-0.9,0h0c-0.1,0-0.7,0-1.2,0h0l-0.2,0
	l0,0l-0.1,0.2l0,0v0.1v0l0.1,0.1l0,0l0,0h0h0c0.1,0,0.3,0,0.3,0h0c0.2,0,0.2,0.1,0.3,0.1c0,0.1,0.1,0.2,0.1,0.4c0,0.3,0,0.7,0,2.4
	v1.4l0,0c0,1.1-0.1,2-0.6,2.6c-0.4,0.4-1,0.7-1.6,0.7h0c-0.6,0-1.1-0.1-1.6-0.6c-0.4-0.4-0.8-1.1-0.8-2.6v-1.6c0-0.2,0-0.3,0-0.5
	c0-1.3,0-1.6,0-1.9c0-0.2,0-0.3,0.1-0.4c0-0.1,0.1-0.1,0.2-0.1h0c0.1,0,0.2,0,0.3,0h0h0l0.1-0.1l0,0l0,0V143v0l-0.1-0.2l0,0l-0.2,0
	h0h0c-0.3,0-1,0-1.1,0c-0.1,0-0.8,0-1.3,0h0l-0.2,0l0,0l-0.1,0.2l0,0v0.1v0l0.1,0.1l0,0l0,0h0h0c0.1,0,0.3,0,0.3,0h0
	c0.2,0,0.2,0.1,0.3,0.1c0,0.1,0.1,0.2,0.1,0.4c0,0.3,0,0.7,0,2.4v1.6v0c0,1.6,0.4,2.5,1,3c0.8,0.8,2,0.8,2.4,0.8h0
	c0.7,0,1.5-0.1,2.4-0.9c0.9-0.8,1.1-2.2,1.1-3.4v-1.2c0-1.7,0-2,0-2.4c0-0.2,0-0.3,0.1-0.4c0-0.1,0.1-0.1,0.2-0.1c0.1,0,0.2,0,0.2,0
	h0h0l0.1-0.1l0,0l0,0V143v0L99.3,142.9L99.3,142.9z M106.7,150.3c0.6-0.5,1.1-1.4,1.1-3c0-2.6-1.6-3.9-3.2-4c-0.9,0-1.7,0.3-2.2,0.9
	c-0.5,0.6-0.9,1.4-0.9,2.6c0,2.5,1.5,4.1,3.4,4.1h0C105.4,150.9,106.1,150.8,106.7,150.3L106.7,150.3L106.7,150.3z M107.9,143.8
	c0.8,0.7,1.3,1.8,1.3,3.1v0c0,1.3-0.4,2.4-1.2,3.3c-0.8,0.9-1.9,1.4-3.3,1.4h0h0c-1.6,0-2.7-0.6-3.4-1.5c-0.7-0.9-1-2-1-3
	c0-0.9,0.3-2,1.1-2.9c0.7-0.9,1.9-1.5,3.4-1.5h0C105.9,142.7,107.1,143.1,107.9,143.8 M136.3,116.6l0.2,0.1l0,0h0l0,0
	c0.1,0,0.2,0,0.4,0c0.2,0.1,0.3,0.1,0.4,0.2c0.1,0.1,0.2,0.3,0.3,0.6l2.7,6.8c0.1,0.3,0.2,0.4,0.2,0.6c0,0,0,0,0,0l0,0
	c0.1,0.1,0.2,0.2,0.3,0.2h0h0l0.2-0.1l0,0l0,0c0.1-0.1,0.2-0.3,0.4-0.8c0.3-0.5,0.8-1.7,1.4-3.4c0.6-1.4,1.1-2.7,1.2-3
	c0.3-0.7,0.4-0.9,0.6-1c0.2-0.1,0.4-0.1,0.4-0.1h0l0,0l0.1,0l0,0l0.1-0.2l0,0l-0.1-0.2l0,0l-0.2,0h0h0c-0.3,0-0.8,0-0.9,0
	c-0.1,0-0.6,0-1.1,0c-0.1,0-0.2,0-0.2,0l0,0l-0.1,0.2l0,0l0.1,0.2l0,0l0.1,0l0,0h0l0,0c0.1,0,0.2,0,0.3,0l0.1,0.1
	c0,0.1,0,0.2-0.1,0.4l0,0v0c-0.2,0.7-1.5,4.2-2.2,5.8l-2-5.3l0,0c-0.2-0.4-0.3-0.8-0.3-0.9c0-0.1,0-0.1,0.1-0.1c0,0,0.2,0,0.3,0h0
	l0,0l0.1,0l0,0l0.1-0.2l0,0l-0.1-0.1l0,0l0,0c-0.1-0.1-0.2-0.1-0.4-0.1c-0.4,0-0.9,0-1,0c-0.1,0-0.8,0-1.3,0c-0.1,0-0.2,0-0.2,0h0
	l-0.1,0l0,0l-0.1,0.1l0,0L136.3,116.6L136.3,116.6z M145.9,116.6L145.9,116.6L145.9,116.6L145.9,116.6L145.9,116.6
	c0.1,0,0.3,0,0.4,0h0l0,0c0.1,0,0.1,0.1,0.2,0.1c0,0.1,0.1,0.2,0.1,0.4c0,0.3,0,0.7,0,2.4v2c0,1.1,0,1.9-0.1,2.4
	c0,0.2,0,0.3-0.1,0.4c0,0.1-0.1,0.1-0.1,0.1h0v0c-0.1,0-0.2,0-0.3,0h0l0,0l-0.1,0l0,0l-0.1,0.1l0,0l0.1,0.2l0,0l0.2,0l0,0h0
	c0.3,0,1,0,1.1,0s0.8,0,1.4,0h0l0.2,0l0,0l0.1-0.2l0,0l-0.1-0.1l0,0l-0.1,0l0,0h0h0c-0.1,0-0.3,0-0.5,0h0c-0.1,0-0.2-0.1-0.2-0.1
	c0-0.1-0.1-0.2-0.1-0.3l0,0c-0.1-0.4-0.1-1.3-0.1-2.4v-2c0-1.7,0-2,0-2.4c0-0.2,0-0.3,0.1-0.4c0-0.1,0.1-0.1,0.2-0.1
	c0.1,0,0.2,0,0.2,0h0h0h0l0.1-0.1l0,0l0,0v-0.1v0l-0.1-0.2l0,0l-0.2,0h0h0c-0.3,0-1,0-1.1,0c0,0-0.7,0-1.1,0h0l-0.2,0l0,0l-0.1,0.2
	l0,0v0.1v0L145.9,116.6L145.9,116.6z M152.4,120.8L152.4,120.8l0.1,0.1c0,1.1,0,2.1,0,2.3v0c0,0.1,0,0.3,0,0.5c0,0.1,0,0.3,0.1,0.3
	l0,0l0,0c0.1,0.1,0.5,0.4,1.8,0.4h0c1,0,1.9-0.4,2.5-1c0.5-0.5,0.8-1.6,0.8-2.5v0c0-1.4-0.6-2.2-1-2.7c-1-1.1-2.2-1.2-3.5-1.2
	c-0.1,0-0.3,0-0.4,0c-0.1,0-0.2,0-0.3,0l0,0l0,0.1c0,0.4,0,1.5,0,2.4L152.4,120.8L152.4,120.8z M150.4,116.6l-0.1-0.1v0v-0.1l0,0
	l0.1-0.2l0,0l0.2,0h0c0.5,0,1.2,0,1.3,0c0.1,0,0.8,0,1.5,0c0.1,0,0.3,0,0.5,0c1.1,0,2.9,0.1,4.1,1.3c0.6,0.6,1.1,1.6,1.1,2.9
	c0,1.4-0.6,2.5-1.2,3.2c-0.5,0.5-1.5,1.3-3.5,1.3h0c-0.5,0-1.1,0-1.6-0.1c-0.5,0-0.9-0.1-0.9-0.1c0,0-0.2,0-0.4,0h0h0
	c-0.2,0-0.5,0-0.6,0h0h0l-0.2,0l0,0l-0.1-0.2l0,0l0.1-0.1l0,0l0.1,0h0h0c0.1,0,0.2,0,0.3,0l0,0h0c0.1,0,0.1,0,0.1-0.1
	c0-0.1,0.1-0.2,0.1-0.4c0.1-0.4,0.1-1.2,0.1-2.1c0-0.1,0-0.2,0-0.3v-2c0-1.7,0-2,0-2.4c0-0.2,0-0.3-0.1-0.4c0-0.1-0.1-0.1-0.3-0.1h0
	v0h0C150.7,116.7,150.6,116.7,150.4,116.6L150.4,116.6L150.4,116.6L150.4,116.6L150.4,116.6L150.4,116.6z M160.2,116.6L160.2,116.6
	L160.2,116.6L160.2,116.6L160.2,116.6c0.2,0,0.3,0,0.4,0h0v0h0c0.2,0,0.2,0.1,0.3,0.1c0,0.1,0.1,0.2,0.1,0.4c0,0.3,0,0.7,0,2.4v2
	c0,1.1,0,1.9-0.1,2.4c0,0.2,0,0.3-0.1,0.4c0,0.1-0.1,0.1-0.1,0.1h0c-0.1,0-0.2,0-0.3,0h0h0l-0.1,0l0,0l-0.1,0.1l0,0l0.1,0.2l0,0
	l0.2,0h0h0c0.2,0,0.4,0,0.6,0h0h0h0c0.2,0,0.4,0,0.4,0c0.2,0,0.4,0,0.9,0h0h0c0.4,0,1,0,1.9,0c0.2,0,0.4,0,0.5,0
	c0.1-0.1,0.2-0.2,0.2-0.3c0,0,0,0,0,0v0v0c0.1-0.3,0.1-1,0.1-1.1v0l0-0.1v0c0-0.1-0.1-0.2-0.2-0.2h0h0l-0.1,0.1l0,0l-0.1,0.2l0,0v0
	c-0.1,0.4-0.2,0.6-0.4,0.7c-0.2,0.1-0.7,0.1-1,0.1h-0.1h0c-0.5,0-0.8,0-0.9-0.1c-0.1-0.1-0.2-0.3-0.2-0.6c0-0.1,0-0.3,0-0.5
	c0-0.5,0-1.1,0-1.4v-0.9c0.3,0,1.2,0,1.5,0.1h0c0.2,0,0.3,0.1,0.4,0.1l0.1,0.2v0l0,0c0,0.1,0,0.2,0,0.3v0v0l0.1,0.1l0,0l0,0h0.1h0
	l0.1-0.1l0,0l0,0c0.1-0.1,0.1-0.2,0.1-0.3v0v0c0-0.1,0-0.5,0-0.7l0,0c0-0.4,0.1-0.5,0.1-0.6v0l0-0.1l0,0l-0.1-0.1l0,0l-0.2,0.1l0,0
	l-0.1,0.1v0c0,0.1-0.2,0.1-0.4,0.1c-0.2,0-1.4,0-1.7,0v-3c0.3,0,1.3,0,1.4,0c0.3,0,0.5,0.1,0.5,0.1c0.1,0.1,0.1,0.1,0.1,0.2
	c0,0.1,0.1,0.3,0.1,0.3v0v0l0,0.2l0,0l0.2,0.1l0,0h0.1h0l0.1-0.2l0,0l0,0l0,0c0-0.2,0-0.6,0.1-0.7c0-0.3,0.1-0.4,0.1-0.5v0v0
	l-0.1-0.1l0-0.1l0,0l-0.3,0.1c-0.1,0-0.2,0-0.4,0.1c-0.2,0-2.4,0-2.5,0l-0.4,0c-0.2,0-0.5,0-0.8,0h0h0l-0.2,0l0,0l-0.1,0.2l0,0v0.1
	v0L160.2,116.6L160.2,116.6z M166,122.2l0.1,0.1l0,0h0c0.1,0,0.1,0,0.2-0.1c0.1,0,0.2-0.1,0.3-0.1c0.3-0.1,2.3-0.4,2.6-0.4h0h0
	c0.1,0,0.2,0,0.3-0.1h0l0.1-0.1l0,0l0.1-0.2l0,0l-0.1-0.1l0,0l0,0c-0.1-0.1-0.2-0.1-0.4-0.1h-2.8c-0.1,0-0.2,0-0.2,0l0,0l-0.1,0.1
	l0,0l-0.2,0.6v0v0v0l0,0.1l0,0L166,122.2L166,122.2z M138.6,132.9c0.2-0.2,0.4-0.6,0.4-1c0-0.4-0.1-0.9-0.3-1.2
	c-0.2-0.3-0.5-0.5-1-0.5h0h0c-0.1,0-0.3,0-0.5,0.1h0l0,0v2.9c0.1,0,0.3,0,0.6,0h0c0.3,0,0.5,0,0.6,0
	C138.4,133.1,138.5,133,138.6,132.9 M139.2,137.3c0.3-0.2,0.5-0.6,0.5-1.1c0-0.6-0.2-1.6-1-2.1c-0.4-0.2-0.6-0.3-0.9-0.3h0l0,0
	c-0.1,0-0.6,0-0.8,0v0.6c0,0.8,0,2.2,0,2.4c0,0.3,0,0.4,0.1,0.5c0,0.1,0.1,0.1,0.2,0.2c0.2,0.1,0.7,0.2,0.9,0.2h0h0
	C138.6,137.6,138.9,137.5,139.2,137.3 M135.1,129.9l-0.1-0.1v0v-0.1l0,0l0.1-0.2l0,0l0.2,0h0c0.5,0,1.2,0,1.3,0h0c0.3,0,0.7,0,1.2,0
	h0c0.9,0,1.5,0.3,1.9,0.7c0.4,0.4,0.5,0.8,0.5,1.1c0,0.9-0.5,1.4-0.9,1.9c0.8,0.3,1.8,1.1,1.8,2.4h-0.1h0.1c0,0.6-0.2,1.3-0.7,1.8
	c-0.5,0.5-1.2,0.8-2.2,0.8h0c-0.1,0-0.5,0-0.8,0h0h0c-0.3,0-0.6,0-0.7,0c0,0-0.2,0-0.4,0h0h0h0h0h0c-0.2,0-0.5,0-0.6,0h0h0l-0.2,0
	l0,0l-0.1-0.2l0,0l0.1-0.1l0,0l0.1,0h0c0.1,0,0.2,0,0.3,0h0c0.1,0,0.1,0,0.1-0.1c0-0.1,0.1-0.2,0.1-0.4c0.1-0.4,0.1-1.2,0.1-2.1
	c0-0.1,0-0.2,0-0.3v-2c0-1.7,0-2,0-2.4c0-0.2,0-0.3-0.1-0.4c0-0.1-0.1-0.1-0.3-0.1h0l0,0h0C135.5,130,135.3,130,135.1,129.9
	L135.1,129.9L135.1,129.9L135.1,129.9L135.1,129.9z M143.1,137.2c0,0.2,0,0.3-0.1,0.4c0,0.1-0.1,0.1-0.1,0.1l0,0c-0.1,0-0.2,0-0.3,0
	h0l-0.1,0l0,0l-0.1,0.1l0,0l0.1,0.2l0,0l0.2,0h0h0c0.3,0,1,0,1.1,0c0,0,0.8,0,1.4,0h0l0.2,0l0,0l0.1-0.2l0,0l-0.1-0.1l0,0l-0.1,0
	l0,0h0c-0.1,0-0.3,0-0.5,0c-0.1,0-0.2-0.1-0.2-0.1c0-0.1-0.1-0.2-0.1-0.3v0l0,0c-0.1-0.5-0.1-1.3-0.1-2.4v-2c0-1.7,0-2,0-2.4
	c0-0.2,0-0.3,0.1-0.4c0-0.1,0.1-0.1,0.2-0.1c0.1,0,0.2,0,0.2,0h0h0l0.1-0.1l0,0l0,0v-0.1v0l-0.1-0.2l0,0l-0.2,0h0h0
	c-0.3,0-1,0-1.1,0c-0.1,0-0.8,0-1.1,0h0l-0.2,0l0,0l-0.1,0.2l0,0v0.1v0l0.1,0.1l0,0l0,0h0c0.1,0,0.2,0,0.3,0h0h0
	c0.1,0,0.1,0.1,0.2,0.1c0,0.1,0.1,0.2,0.1,0.4c0,0.3,0,0.7,0,2.4v2C143.1,135.9,143.1,136.8,143.1,137.2 M157.7,137.9L157.7,137.9
	L157.7,137.9l-0.2-0.2l0,0l0,0h0c-0.1,0-0.4,0-0.7-0.1c-0.2-0.1-0.3-0.2-0.4-0.4c-0.1-0.2-0.1-0.4-0.1-0.6l-0.7-6.8
	c0-0.1,0-0.2-0.1-0.3v0c0,0,0,0,0,0l0,0c0-0.1-0.1-0.2-0.2-0.2h0l0,0l-0.2,0.1l0,0l-0.1,0.2v0l0,0l-3.1,6.7l-3.3-6.7l0,0l-0.1-0.1
	l0,0l-0.2-0.1l0,0l-0.2,0.1l0,0l-0.1,0.2l0,0l0,0l-0.8,7.2c0,0.2,0,0.4-0.1,0.6c-0.1,0.1-0.1,0.2-0.2,0.2h0c-0.2,0-0.2,0-0.3,0h0h0
	l-0.1,0.1l0,0l0,0v0.1v0l0.1,0.2l0,0l0.2,0l0,0h0c0.3,0,0.8,0,0.9,0c0.1,0,0.6,0,1,0v-0.1v0.1c0.1,0,0.1,0,0.2,0l0,0l0.1-0.2l0,0
	v-0.1v0l-0.2-0.1l0,0l0,0h0c-0.1,0-0.2,0-0.4-0.1h0l0,0c-0.1,0-0.2-0.1-0.2-0.2c0-0.2,0-0.4,0-0.6l0.4-4.7c0.4,0.8,1.2,2.6,1.3,2.8
	c0.1,0.1,1,2,1.3,2.6c0.1,0.2,0.2,0.3,0.2,0.4v0l0.1,0.1l0,0l0.1,0.1l0,0l0.1-0.1l0,0l0,0c0.1-0.1,0.2-0.2,0.3-0.6l2.5-5.4l0.5,5.3
	l0,0.2l0,0.1l-0.1,0.1l0,0l0,0v0.1v0l0.1,0.2l0,0l0,0c0.1,0,0.2,0,0.3,0.1c0.4,0,1.6,0.1,1.9,0.1c0.1,0,0.1,0,0.2,0l0,0
	C157.6,138.1,157.7,138.1,157.7,137.9 M165.4,132.9c0-1.7,0-2,0-2.4v0c0-0.2,0-0.3,0.1-0.4c0-0.1,0.1-0.1,0.2-0.1c0.1,0,0.2,0,0.2,0
	h0h0l0.1-0.1l0,0l0,0v-0.1v0l-0.1-0.2l0,0l-0.2,0h0h0c-0.3,0-0.9,0-0.9,0c-0.1,0-0.7,0-1.2,0h0l-0.2,0l0,0l-0.1,0.2l0,0v0.1v0
	l0.1,0.1l0,0l0,0h0h0c0.1,0,0.3,0,0.3,0l0,0c0.2,0,0.2,0.1,0.3,0.1c0,0.1,0.1,0.2,0.1,0.4c0,0.3,0,0.7,0,2.4v1.4l0,0
	c0,1.1-0.1,2-0.6,2.6c-0.4,0.4-1,0.7-1.6,0.7h0c-0.6,0-1.1-0.1-1.6-0.6c-0.4-0.4-0.8-1.1-0.8-2.6v-1.6c0-1.7,0-2,0-2.4v0
	c0-0.2,0-0.3,0.1-0.4c0-0.1,0.1-0.1,0.2-0.1h0c0.1,0,0.2,0,0.3,0h0h0l0.1-0.1l0,0l0,0v-0.1v0l-0.1-0.2l0,0l-0.2,0h0h0
	c-0.3,0-1,0-1.1,0h0c-0.1,0-0.8,0-1.3,0h0l-0.2,0l0,0l-0.1,0.2l0,0v0.1v0l0.1,0.1l0,0l0,0h0h0c0.1,0,0.3,0,0.3,0h0l0,0
	c0.2,0,0.2,0.1,0.3,0.1c0,0.1,0.1,0.2,0.1,0.4c0,0.3,0,0.7,0,2.4v1.6v0c0,1.6,0.4,2.5,1,3c0.8,0.8,2,0.8,2.4,0.8l0,0
	c0.7,0,1.5-0.1,2.4-0.9c0.9-0.8,1.1-2.2,1.1-3.4V132.9z M167.6,131.5L167.6,131.5L167.6,131.5c0,0.8,0.3,1.6,1.5,2.5l0.5,0.4
	c0.9,0.8,1.2,1.2,1.2,1.9c0,0.6-0.5,1.3-1.4,1.3c-0.7,0-1.4-0.3-1.5-1l0,0c0-0.1,0-0.3,0-0.4v0l0-0.1l0,0l-0.2-0.1l0,0l-0.2,0.1l0,0
	l0,0.2l0,0v0c0,0.2-0.1,0.6-0.1,1.2c0,0.1,0,0.2,0,0.3c0,0.1,0.1,0.1,0.2,0.2l0,0l0.1,0l0,0l0,0c0.5,0.2,1,0.3,1.5,0.3
	c0.6,0,1.2-0.1,1.8-0.5c0.8-0.6,1-1.5,1-2v0c0-0.9-0.4-1.7-1.7-2.7l-0.3-0.2c-0.5-0.4-0.9-0.7-1-1c-0.2-0.3-0.2-0.5-0.2-0.8
	c0-0.7,0.5-1.1,1.2-1.1c1,0,1.2,0.4,1.3,0.5c0,0.1,0.1,0.4,0.1,0.5v0l0,0l0,0.1l0,0l0.2,0.1l0,0h0h0c0.1,0,0.2-0.1,0.2-0.2
	c0,0,0,0,0,0c0,0,0,0,0,0h0c0-0.1,0-0.1,0-0.2c0-0.8,0-1.1,0-1.2v0l-0.1-0.1l0,0l-0.2,0l0,0h0c-0.1,0-0.1,0-0.4-0.1l-0.1,0v0
	c-0.3-0.1-0.6-0.1-1-0.1h0c-0.7,0-1.3,0.2-1.8,0.6C167.8,130.3,167.6,130.9,167.6,131.5 M138,149.8l-0.2-0.1l0,0l0,0l-0.1,0.1l0,0
	l0,0.1h0l0,0c0,0.2-0.1,0.4-0.3,0.6c-0.2,0.2-0.6,0.3-1.2,0.3h-0.1h0c-0.9,0-1.1-0.1-1.2-0.2l0,0c0,0-0.1-0.2-0.2-0.6
	c0-0.4,0-1,0-1.8v-2c0-1.7,0-2,0-2.4c0-0.2,0-0.3,0.1-0.4c0-0.1,0.1-0.1,0.2-0.1c0.1,0,0.3,0,0.3,0h0h0l0.1-0.1l0,0l0,0V143v0
	l-0.1-0.2l0,0l-0.2,0h0h0c-0.3,0-1.2,0-1.2,0c0,0-0.8,0-1.3,0h0l-0.2,0l0,0l-0.1,0.2l0,0v0.1v0l0.1,0.1l0,0l0,0h0h0
	c0.1,0,0.3,0,0.3,0h0l0,0c0.2,0,0.2,0.1,0.3,0.1c0,0.1,0.1,0.2,0.1,0.4c0,0.3,0,0.7,0,2.4v2c0,1.1,0,1.9-0.1,2.4
	c0,0.2,0,0.3-0.1,0.4c0,0.1-0.1,0.1-0.1,0.1l0,0c-0.1,0-0.2,0-0.3,0h0l0,0l-0.1,0l0,0l-0.1,0.1l0,0l0.1,0.2l0,0l0.2,0l0,0h0
	c0.2,0,0.4,0,0.6,0c0.2,0,0.4,0,0.4,0c0.3,0,0.7,0,1.1,0h0c0.5,0,1,0,1.8,0c0.3,0,0.5,0,0.6-0.1c0.2-0.1,0.2-0.2,0.2-0.3l0,0
	c0.1-0.3,0.2-1,0.2-1.1v0L138,149.8L138,149.8z M146.6,142.9l-0.2,0h0h0c-0.3,0-0.9,0-0.9,0c-0.1,0-0.7,0-1.2,0h0l-0.2,0l0,0
	L144,143l0,0v0.1v0l0.1,0.1l0,0l0,0h0h0c0.1,0,0.3,0,0.3,0l0,0h0c0.2,0,0.2,0.1,0.3,0.1c0,0.1,0.1,0.2,0.1,0.4c0,0.3,0,0.6,0,1.8
	c0,0.2,0,0.4,0,0.6v1.4v0c0,1.1-0.1,2-0.6,2.6c-0.4,0.4-1,0.7-1.6,0.7h0c-0.6,0-1.1-0.1-1.6-0.6c-0.4-0.4-0.8-1.1-0.8-2.6v-1.6
	c0-1.7,0-2,0-2.4c0-0.2,0-0.3,0.1-0.4c0-0.1,0.1-0.1,0.2-0.1l0,0c0.1,0,0.2,0,0.2,0h0h0l0.1-0.1l0,0l0,0V143v0l-0.1-0.2l0,0l-0.2,0
	h0h0c-0.3,0-1,0-1.1,0c-0.1,0-0.8,0-1.3,0h0l-0.2,0l0,0l-0.1,0.2l0,0v0.1v0l0.1,0.1l0,0l0,0h0h0c0.1,0,0.3,0,0.3,0h0h0h0
	c0.2,0,0.2,0.1,0.3,0.1c0,0.1,0.1,0.2,0.1,0.4c0,0.3,0,0.7,0,2.4v1.6v0c0,1.6,0.4,2.5,1,3c0.8,0.8,2,0.8,2.4,0.8h0
	c0.7,0,1.5-0.1,2.4-0.9c0.9-0.8,1.1-2.2,1.1-3.4v-1.2c0-1.7,0-2,0-2.4c0-0.2,0-0.3,0.1-0.4c0-0.1,0.1-0.1,0.2-0.1c0.1,0,0.2,0,0.2,0
	h0h0l0.1-0.1l0,0l0,0V143v0L146.6,142.9L146.6,142.9z M158.3,151.1L158.3,151.1L158.3,151.1L158.3,151.1c-0.2,0-0.4,0-0.7-0.1
	c-0.2-0.1-0.3-0.2-0.4-0.4c-0.1-0.2-0.1-0.4-0.1-0.6l-0.7-6.8c0-0.1,0-0.2-0.1-0.3v0v0h0c0-0.1-0.1-0.2-0.2-0.2h0l0,0l-0.2,0.1l0,0
	l-0.1,0.2v0l-3.1,6.7l-3.3-6.8l0,0l-0.1-0.1l0,0l-0.2-0.1l0,0l-0.2,0.1l0,0l-0.1,0.2l0,0l-0.8,7.2c0,0.2,0,0.4-0.1,0.6
	c-0.1,0.1-0.1,0.2-0.2,0.2h0c-0.2,0-0.2,0-0.3,0h0h0h0l-0.1,0.1l0,0l0,0v0.1v0l0.1,0.2l0,0l0.2,0h0h0c0.3,0,0.8,0,0.9,0h0h0
	c0.1,0,0.6,0,1,0c0.1,0,0.1,0,0.2,0l0,0l0.1-0.2l0,0v-0.1v0l-0.2-0.1l0,0l0,0h0h0c-0.1,0-0.2,0-0.4,0l0,0h0c-0.1,0-0.2-0.1-0.2-0.2
	c0-0.2,0-0.4,0-0.6l0.4-4.7c0.4,0.8,1.2,2.6,1.3,2.8c0.1,0.1,1,2,1.3,2.6c0.1,0.2,0.2,0.3,0.2,0.4l0,0l0.1,0.1l0,0l0.1,0l0,0l0.1,0
	l0,0l0,0c0.1-0.1,0.2-0.2,0.3-0.6l2.5-5.4l0.5,5.3l0,0.2l0,0.1l-0.1,0.1l0,0l0,0v0.1v0l0.1,0.2l0,0l0,0c0.1,0,0.2,0,0.3,0.1
	c0.4,0,1.6,0.1,1.9,0.1c0.1,0,0.1,0,0.2,0c0.1,0,0.2-0.1,0.2-0.2v0v0L158.3,151.1L158.3,151.1z M164.2,149.9c0-0.1-0.1-0.2-0.2-0.2
	h0l0,0l0,0l-0.1,0.1l0,0l-0.1,0.2l0,0v0c-0.1,0.4-0.2,0.6-0.4,0.7c-0.2,0.1-0.7,0.1-0.9,0.1l-0.1,0h0c-0.5,0-0.8,0-0.9-0.1l0,0
	c-0.1-0.1-0.2-0.3-0.2-0.6c0-0.1,0-0.3,0-0.5c0-0.5,0-1.1,0-1.4v-0.9c0.3,0,1.2,0,1.5,0.1h0c0.2,0,0.3,0.1,0.4,0.1l0.1,0.2v0v0
	c0,0.1,0,0.2,0,0.3v0v0l0.1,0.1l0,0l0,0h0.1h0l0.1-0.1l0,0l0,0c0.1-0.1,0.1-0.2,0.1-0.3v0v0c0-0.1,0-0.5,0-0.7v0v0
	c0-0.4,0.1-0.5,0.1-0.6v0l0-0.1l0,0l-0.1-0.1l0,0l-0.2,0.1l0,0l-0.1,0.1h0c0,0.1-0.2,0.1-0.4,0.1c-0.2,0-1.3,0-1.7,0h0v-3
	c0.3,0,1.3,0,1.4,0c0.3,0,0.5,0.1,0.5,0.1c0.1,0.1,0.1,0.1,0.1,0.2c0,0.1,0.1,0.3,0.1,0.3v0v0l0,0.2l0,0l0.2,0.1l0,0h0.1h0l0.1-0.2
	l0,0l0,0l0,0c0-0.2,0-0.6,0.1-0.7c0-0.3,0.1-0.4,0.1-0.5v0v0l-0.1-0.1l0-0.1l0,0l-0.3,0.1c-0.1,0-0.2,0-0.4,0c-0.2,0-2.4,0-2.5,0
	l-0.5,0c-0.2,0-0.5,0-0.8,0h0l-0.2,0l0,0L159,143l0,0v0.1v0l0.1,0.1l0,0l0,0h0h0c0.1,0,0.3,0,0.3,0h0h0h0c0.2,0,0.2,0.1,0.3,0.1
	c0,0.1,0.1,0.2,0.1,0.4c0,0.3,0,0.7,0,2.4v2c0,1.1,0,1.9-0.1,2.4c0,0.2,0,0.3-0.1,0.4c0,0.1-0.1,0.1-0.1,0.1l0,0c-0.1,0-0.2,0-0.3,0
	h0h0l-0.1,0l0,0l-0.1,0.1l0,0l0.1,0.2l0,0l0.2,0h0h0c0.2,0,0.4,0,0.6,0h0h0h0c0.2,0,0.4,0,0.4,0c0.2,0,0.4,0,0.9,0h0
	c0.4,0,1,0,1.9,0c0.2,0,0.4,0,0.5,0c0.1-0.1,0.2-0.2,0.2-0.3v0v0l0,0c0.1-0.3,0.1-1,0.1-1.1v0L164.2,149.9L164.2,149.9z
	 M174.3,142.8L174.3,142.8L174.3,142.8l-0.2,0h0h0c-0.5,0-0.8,0-0.9,0h0c-0.1,0-0.6,0-1.2,0h0l-0.2,0h0l0,0c-0.1,0-0.2,0.1-0.2,0.2
	l0,0v0l0,0.1l0,0l0.2,0.1l0,0h0h0c0.1,0,0.3,0,0.5,0c0.1,0,0.2,0.1,0.2,0.2c0.1,0.1,0.1,0.4,0.1,0.7l0.1,5.3
	c-0.5-0.5-1.5-1.6-2.4-2.6c-1.7-1.8-3.4-3.6-3.5-3.8v0l0,0l0,0c0-0.1-0.1-0.1-0.2-0.2h0l-0.1-0.1l0,0l-0.1-0.1l0,0l-0.1,0.1l0,0l0,0
	c-0.1,0.1-0.1,0.3-0.1,0.6l0,6.4v0c0,0.5,0,0.8-0.1,1c-0.1,0.2-0.1,0.2-0.2,0.3h0l0,0c-0.1,0-0.3,0.1-0.4,0.1h0h0h0l-0.1,0.1l0,0
	l0,0v0.1v0l0.1,0.2l0,0l0.2,0h0h0c0.5,0,1,0,1.1,0h0h0c0.1,0,0.5,0,1.2,0c0.1,0,0.1,0,0.2,0l0,0l0.1-0.2l0,0v-0.1v0l-0.1-0.1l0,0
	l0,0h0h0c-0.1,0-0.3,0-0.5-0.1c-0.1,0-0.2-0.1-0.2-0.2c-0.1-0.2-0.1-0.5-0.1-0.9v-0.1l-0.1-4.9c0.5,0.6,1.6,1.7,2.6,2.9
	c1.2,1.3,2.8,2.9,2.9,3c0.3,0.3,0.5,0.5,0.6,0.6c0.1,0.1,0.2,0.2,0.3,0.2h0l0.1-0.1l0,0l0,0c0.1-0.1,0.1-0.2,0.1-0.3
	c0-0.1,0-0.3,0-0.6l0-6.5v0c0-0.3,0-0.5,0.1-0.6c0.1-0.1,0.1-0.1,0.2-0.2h0h0c0.1,0,0.2,0,0.2,0h0h0l0.1,0l0,0l0.1-0.1l0,0l0,0v0
	C174.4,142.9,174.4,142.9,174.3,142.8"/>
</svg>
